<svg width="38" height="38" viewBox="0 0 38 38" fill="none" xmlns="http://www.w3.org/2000/svg">
<path d="M18.7819 0C13.8007 0 9.0234 1.97881 5.5011 5.5011C1.9788 9.0234 0 13.8007 0 18.7819C0 23.7632 1.9788 28.5405 5.5011 32.0628C9.0234 35.5851 13.8007 37.5639 18.7819 37.5639C21.2484 37.5639 23.6907 37.0781 25.9695 36.1342C28.2482 35.1903 30.3187 33.8068 32.0628 32.0628C33.8068 30.3187 35.1903 28.2482 36.1342 25.9695C37.0781 23.6907 37.5639 21.2484 37.5639 18.7819C37.5639 16.3155 37.0781 13.8731 36.1342 11.5944C35.1903 9.31567 33.8068 7.24517 32.0628 5.5011C30.3187 3.75704 28.2482 2.37357 25.9695 1.42969C23.6907 0.485809 21.2484 0 18.7819 0ZM18.7819 6.5537C25.5269 6.5537 31.0102 12.037 31.0102 18.7819C31.0102 25.5269 25.5269 31.0102 18.7819 31.0102C12.037 31.0102 6.5537 25.5269 6.5537 18.7819C6.5537 12.037 12.037 6.5537 18.7819 6.5537ZM18.7819 7.99231C17.1501 7.99231 15.6044 8.35357 14.2191 8.99951C15.142 11.6274 16.7214 14.9456 18.7819 14.9456C20.8458 14.9456 22.3726 11.6168 23.3177 8.98696C21.9393 8.34893 20.4031 7.99231 18.7819 7.99231ZM26.6745 11.4194C24.4595 13.1092 21.7878 15.6386 22.425 17.5996C23.0629 19.5629 26.7015 19.986 29.4949 20.0721C29.5451 19.649 29.5716 19.2187 29.5716 18.7819C29.5716 15.9333 28.4722 13.3462 26.6745 11.4194ZM10.8714 11.4388C9.0843 13.3635 7.99231 15.9428 7.99231 18.7819C7.99231 19.2255 8.01949 19.6625 8.07128 20.0919C10.8552 20.0259 14.4956 19.549 15.132 17.5903C15.7693 15.6288 13.0796 13.1503 10.8714 11.4388ZM16.481 14.9269C16.3362 14.931 16.1959 14.9788 16.0786 15.0639C15.9243 15.1761 15.8209 15.3449 15.7911 15.5333C15.7612 15.7217 15.8075 15.9142 15.9196 16.0685C16.0317 16.2229 16.2005 16.3264 16.3889 16.3562C16.5773 16.3861 16.7698 16.3399 16.9242 16.2278C17.0006 16.1723 17.0654 16.1023 17.1148 16.0217C17.1641 15.9412 17.1971 15.8517 17.2119 15.7584C17.2267 15.6651 17.223 15.5698 17.2009 15.4779C17.1789 15.3861 17.1389 15.2995 17.0834 15.223C17.0146 15.1284 16.9238 15.052 16.8189 15.0004C16.7139 14.9488 16.5979 14.9236 16.481 14.9269ZM21.0828 14.9269C21.0659 14.9264 21.0489 14.9265 21.0319 14.9272C20.9237 14.9318 20.8178 14.9608 20.7224 15.012C20.6269 15.0632 20.5442 15.1353 20.4805 15.223C20.4249 15.2994 20.385 15.386 20.3629 15.4779C20.3409 15.5697 20.3371 15.6651 20.3519 15.7584C20.3667 15.8517 20.3997 15.9412 20.4491 16.0217C20.4985 16.1023 20.5632 16.1723 20.6397 16.2278C20.794 16.3399 20.9866 16.3861 21.175 16.3563C21.3634 16.3264 21.5322 16.2229 21.6443 16.0686C21.7564 15.9143 21.8026 15.7218 21.7728 15.5334C21.743 15.345 21.6396 15.1761 21.4853 15.064C21.368 14.9788 21.2277 14.931 21.0828 14.9269ZM18.7819 16.2244C18.1036 16.2244 17.4531 16.4939 16.9735 16.9735C16.4938 17.4531 16.2244 18.1036 16.2244 18.7819C16.2244 19.4602 16.4938 20.1108 16.9735 20.5904C17.4531 21.07 18.1036 21.3395 18.7819 21.3395C19.4602 21.3395 20.1108 21.07 20.5904 20.5904C21.07 20.1108 21.3395 19.4602 21.3395 18.7819C21.3395 18.1036 21.07 17.4531 20.5904 16.9735C20.1108 16.4939 19.4602 16.2244 18.7819 16.2244ZM15.0817 19.2644C15.0097 19.2655 14.9383 19.2773 14.8698 19.2996C14.7799 19.3288 14.6967 19.3754 14.6249 19.4367C14.553 19.4981 14.494 19.5729 14.4511 19.6571C14.4082 19.7413 14.3823 19.8331 14.3748 19.9273C14.3674 20.0214 14.3786 20.1162 14.4078 20.206C14.4668 20.3874 14.5954 20.538 14.7654 20.6246C14.9353 20.7112 15.1327 20.7267 15.3141 20.6678C15.404 20.6386 15.4872 20.592 15.559 20.5307C15.6309 20.4694 15.6899 20.3945 15.7328 20.3103C15.7757 20.2262 15.8016 20.1344 15.8091 20.0402C15.8165 19.946 15.8053 19.8513 15.7761 19.7615C15.7286 19.6153 15.6356 19.4882 15.5107 19.3988C15.3857 19.3093 15.2354 19.2622 15.0817 19.2644ZM22.5031 19.2651C22.346 19.2582 22.191 19.3031 22.0618 19.3927C21.9326 19.4824 21.8364 19.6119 21.7878 19.7614C21.7586 19.8512 21.7474 19.9459 21.7548 20.0401C21.7622 20.1343 21.7881 20.2261 21.831 20.3102C21.8739 20.3944 21.933 20.4693 22.0048 20.5306C22.0767 20.592 22.1599 20.6385 22.2497 20.6677C22.4311 20.7267 22.6285 20.7111 22.7985 20.6245C22.9685 20.538 23.0971 20.3874 23.156 20.206C23.1852 20.1162 23.1964 20.0214 23.189 19.9273C23.1816 19.8331 23.1557 19.7413 23.1128 19.6571C23.0699 19.5729 23.0109 19.4981 22.939 19.4367C22.8672 19.3754 22.7839 19.3288 22.6941 19.2996C22.6323 19.2795 22.568 19.2679 22.5031 19.2651ZM15.1387 21.48C13.4132 21.4883 11.1234 22.8252 9.35037 24.0318C10.8712 26.7626 13.5431 28.7603 16.7147 29.3736C17.5132 26.705 18.1869 23.0902 16.5192 21.8786C16.1313 21.5968 15.6611 21.4774 15.1387 21.48ZM22.413 21.4816C21.8871 21.4816 21.4146 21.6027 21.0267 21.8846C19.3567 23.0979 20.0785 26.6884 20.8598 29.3716C24.0317 28.755 26.7028 26.7533 28.2207 24.0189C26.4619 22.8022 24.1498 21.4816 22.413 21.4815V21.4816ZM18.7819 21.9453C18.5912 21.9453 18.4082 22.0211 18.2733 22.156C18.1384 22.2909 18.0626 22.4738 18.0626 22.6646C18.0626 22.8554 18.1384 23.0383 18.2733 23.1732C18.4082 23.3081 18.5912 23.3839 18.7819 23.3839C18.9727 23.3839 19.1557 23.3081 19.2906 23.1732C19.4255 23.0383 19.5012 22.8554 19.5012 22.6646C19.5012 22.4738 19.4255 22.2909 19.2906 22.156C19.1557 22.0211 18.9727 21.9453 18.7819 21.9453Z" fill="white"/>
</svg>
