<svg width="38" height="38" viewBox="0 0 38 38" fill="none" xmlns="http://www.w3.org/2000/svg">
<path d="M34.065 9.4625H31.7751C32.0211 8.68657 32.1725 7.75925 32.1725 6.62375C32.1725 2.97123 29.2013 0 25.5487 0C22.4829 0 20.439 2.8009 19.1143 5.84783C17.8084 2.99015 15.651 0 12.3012 0C8.64872 0 5.6775 2.97123 5.6775 6.62375C5.6775 7.75925 5.8289 8.68657 6.07492 9.4625H3.785C1.70325 9.4625 0 11.1657 0 13.2475C0 15.3292 1.70325 17.0325 3.785 17.0325H34.065C36.1467 17.0325 37.85 15.3292 37.85 13.2475C37.85 11.1657 36.1467 9.4625 34.065 9.4625ZM25.5487 3.785C27.1195 3.785 28.3875 5.05297 28.3875 6.62375C28.3875 9.4625 27.1952 9.4625 26.495 9.4625H21.8016C22.7668 6.47235 24.1672 3.785 25.5487 3.785ZM9.4625 6.62375C9.4625 5.05297 10.7305 3.785 12.3012 3.785C13.9856 3.785 15.5374 6.68052 16.4647 9.4625H11.355C10.6548 9.4625 9.4625 9.4625 9.4625 6.62375ZM5.6775 20.8175H3.785V34.065C3.785 36.1467 5.48825 37.85 7.57 37.85H17.0325V20.8175H5.6775ZM30.28 20.8175H20.8175V37.85H30.28C32.3617 37.85 34.065 36.1467 34.065 34.065V20.8175H30.28Z" fill="white"/>
</svg>
