<svg width="38" height="38" viewBox="0 0 38 38" fill="none" xmlns="http://www.w3.org/2000/svg">
<path d="M26.6882 33.7633C24.9508 33.7633 23.5484 32.005 23.5484 29.8282C23.5484 27.6722 24.9508 25.914 26.6882 25.914C28.4255 25.914 29.828 27.6722 29.828 29.8282C29.828 32.005 28.4255 33.7633 26.6882 33.7633ZM18.8387 17.2694C16.2432 17.2694 14.129 15.5111 14.129 13.3552C14.129 11.1783 16.2432 9.42011 18.8387 9.42011C21.4343 9.42011 23.5484 11.1783 23.5484 13.3552C23.5484 15.5111 21.4343 17.2694 18.8387 17.2694ZM10.9893 33.7633C9.25192 33.7633 7.84948 32.005 7.84948 29.8282C7.84948 27.6722 9.25192 25.914 10.9893 25.914C12.7266 25.914 14.129 27.6722 14.129 29.8282C14.129 32.005 12.7266 33.7633 10.9893 33.7633ZM18.8387 10.99C19.6969 10.99 20.4086 11.7016 20.4086 12.5598C20.4086 13.418 19.6969 14.1297 18.8387 14.1297C17.9805 14.1297 17.2688 13.418 17.2688 12.5598C17.2688 11.7016 17.9805 10.99 18.8387 10.99ZM32.9677 18.8392C32.2979 18.8392 31.649 18.9857 31.0629 19.2578C30.0582 17.981 28.6976 16.8926 27.065 16.0553C28.2581 14.3808 28.9698 12.3505 28.9698 10.1527V10.0271C31.2513 9.5457 32.9677 7.51536 32.9677 5.06639C32.9677 2.28252 30.6862 0.00100557 27.9022 0.00100557C26.4579 0.00100557 25.1183 0.608014 24.2391 1.57086C22.6248 0.544881 20.7515 0 18.8387 0C16.9259 0 15.0527 0.544881 13.4383 1.57086C12.5592 0.608014 11.2195 0.00100557 9.77522 0.00100557C6.99128 0.00100557 4.7097 2.28252 4.7097 5.06639C4.7097 7.49443 6.42612 9.52477 8.68676 10.0271V10.1527C8.68676 12.3505 9.41938 14.4018 10.5916 16.0553C8.97981 16.8926 7.61923 17.981 6.6145 19.2578C5.89919 18.9356 5.11445 18.798 4.33218 18.8577C3.54991 18.9174 2.79511 19.1724 2.13693 19.5993C1.47876 20.0263 0.938244 20.6116 0.564907 21.3016C0.191571 21.9916 -0.00265348 22.7642 2.73806e-05 23.5488C2.73806e-05 26.1652 2.09322 28.2583 4.7097 28.2583H4.83529C4.75156 28.7607 4.7097 29.3049 4.7097 29.8282C4.7097 34.1609 7.51457 37.6774 10.9893 37.6774C13.1034 37.6774 14.9663 36.3587 16.1176 34.3493C16.9967 34.4749 17.8968 34.5377 18.8387 34.5377C19.7807 34.5377 20.6807 34.4749 21.5599 34.3493C22.7111 36.3587 24.5741 37.6774 26.6882 37.6774C30.1629 37.6774 32.9677 34.1609 32.9677 29.8282C32.9677 29.3049 32.9259 28.7607 32.8422 28.2583H32.9677C35.5842 28.2583 37.6774 26.1652 37.6774 23.5488C37.6774 20.9323 35.5842 18.8392 32.9677 18.8392Z" fill="white"/>
</svg>
