<svg width="43" height="39" viewBox="0 0 43 39" fill="none" xmlns="http://www.w3.org/2000/svg">
<path d="M21.1417 0C21.1417 0 8.06346 11.3412 0.75476 17.4834C0.522092 17.6868 0.334649 17.9372 0.204615 18.2182C0.0745807 18.4992 0.00486536 18.8046 0 19.1145C0 19.6777 0.222743 20.2179 0.619227 20.6162C1.01571 21.0145 1.55346 21.2383 2.11417 21.2383H6.34252V36.1051C6.34252 36.6684 6.56526 37.2086 6.96175 37.6068C7.35823 38.0051 7.89598 38.2289 8.4567 38.2289H14.7992C15.3599 38.2289 15.8977 38.0051 16.2942 37.6068C16.6906 37.2086 16.9134 36.6684 16.9134 36.1051V27.6098H25.3701V36.1051C25.3701 36.6684 25.5928 37.2086 25.9893 37.6068C26.3858 38.0051 26.9235 38.2289 27.4843 38.2289H33.8268C34.3875 38.2289 34.9252 38.0051 35.3217 37.6068C35.7182 37.2086 35.941 36.6684 35.941 36.1051V21.2383H40.1693C40.73 21.2383 41.2678 21.0145 41.6643 20.6162C42.0607 20.2179 42.2835 19.6777 42.2835 19.1145C42.2805 18.7987 42.2061 18.4877 42.0658 18.2051C41.9255 17.9225 41.723 17.6757 41.4738 17.4834C34.2158 11.3412 21.1417 0 21.1417 0Z" fill="white"/>
</svg>
