<svg width="40" height="38" viewBox="0 0 40 38" fill="none" xmlns="http://www.w3.org/2000/svg">
<path d="M0 13.9931V21.9921C0 24.1918 1.79976 25.9915 3.99946 25.9915H7.99892V9.99369H3.99946C1.79976 9.99369 0 11.7934 0 13.9931ZM39.1347 0.354985C38.8662 0.16931 38.5564 0.0521874 38.2322 0.0138436C37.908 -0.0245002 37.5794 0.0171009 37.275 0.135014L11.9984 9.8537V26.1315L13.6382 26.7514L12.6983 29.5511C12.0384 31.5508 13.0382 33.7305 15.018 34.5304L21.2971 37.05C21.7771 37.23 22.277 37.33 22.7769 37.33C23.3569 37.33 23.9368 37.21 24.4567 36.9501C25.4566 36.4901 26.2165 35.6302 26.5564 34.5904L27.3963 32.0507L37.255 35.8502C37.4949 35.9302 37.7349 35.9902 37.9749 35.9902C38.3748 35.9902 38.7748 35.8702 39.1147 35.6302C39.6547 35.2503 39.9746 34.6304 39.9746 33.9905V1.99476C39.9746 1.33485 39.6547 0.714937 39.1147 0.354985H39.1347ZM22.7769 33.3505L16.4978 30.8309L17.3777 28.1912L23.6768 30.6109L22.7769 33.3305V33.3505Z" fill="white"/>
</svg>
