<svg width="35" height="38" viewBox="0 0 35 38" fill="none" xmlns="http://www.w3.org/2000/svg">
<path d="M17.5009 0C14.2402 0 11.3664 2.15538 10.4453 5.28712C9.46892 4.84499 8.43729 4.60551 7.36881 4.60551C5.41448 4.60551 3.54019 5.38186 2.15827 6.76378C0.776354 8.1457 0 10.02 0 11.9743C0.00436474 13.6062 0.548966 15.1907 1.54877 16.4805C2.54858 17.7702 3.94732 18.6926 5.52661 19.1036V32.2385H29.4752V19.1036C32.7175 18.2562 35.0019 15.3271 35.0019 11.9743C35.0019 10.02 34.2255 8.1457 32.8436 6.76378C31.4617 5.38186 29.5874 4.60551 27.633 4.60551C26.5646 4.60551 25.5329 4.84499 24.5566 5.28712C23.6355 2.15538 20.7616 0 17.5009 0ZM16.5798 16.5798H18.422V29.4752H16.5798V16.5798ZM11.0532 20.2642H12.8954V29.4752H11.0532V20.2642ZM22.1064 20.2642H23.9486V29.4752H22.1064V20.2642ZM5.52661 34.0807V35.923C5.52661 36.4115 5.7207 36.8801 6.06618 37.2256C6.41166 37.5711 6.88023 37.7652 7.36881 37.7652H27.633C28.1216 37.7652 28.5902 37.5711 28.9357 37.2256C29.2812 36.8801 29.4752 36.4115 29.4752 35.923V34.0807H5.52661Z" fill="white"/>
</svg>
