<svg width="45" height="37" viewBox="0 0 45 37" fill="none" xmlns="http://www.w3.org/2000/svg">
<path d="M41.513 27.351V13.5038L22.9234 23.5842C22.2766 23.9501 21.6028 24.1331 20.9022 24.1331C20.2015 24.1331 19.5278 23.9493 18.8809 23.5816L1.10039 13.868C0.724054 13.6426 0.446572 13.3755 0.267943 13.0668C0.0893142 12.7581 0 12.4164 0 12.0418C0 11.6672 0.0893142 11.3256 0.267943 11.0169C0.446572 10.7082 0.724054 10.4411 1.10039 10.2157L18.8809 0.551496C19.2052 0.367664 19.5312 0.229789 19.859 0.137874C20.1885 0.0459578 20.5362 0 20.9022 0C21.2681 0 21.6158 0.0459578 21.9453 0.137874C22.2748 0.229789 22.6009 0.367664 22.9234 0.551496L42.9984 11.4253C43.366 11.6091 43.6435 11.8736 43.8308 12.2187C44.0198 12.5656 44.1144 12.9263 44.1144 13.3009V27.3484C44.1144 27.7195 43.9904 28.0291 43.7424 28.2771C43.4944 28.5268 43.1848 28.6517 42.8137 28.6517C42.4425 28.6517 42.133 28.5268 41.885 28.2771C41.637 28.0274 41.513 27.7204 41.513 27.351ZM18.8809 36.1411L7.47639 29.9654C6.8087 29.5873 6.27802 29.0697 5.88434 28.4124C5.49067 27.7551 5.29383 27.0336 5.29383 26.248V18.1655L18.8809 25.5352C19.5278 25.9012 20.2015 26.0841 20.9022 26.0841C21.6028 26.0841 22.2766 25.9003 22.9234 25.5326L36.5105 18.1655V26.2506C36.5105 27.038 36.3137 27.7594 35.92 28.415C35.5263 29.0723 34.9965 29.5899 34.3305 29.968L22.9234 36.1411C22.6009 36.3232 22.2748 36.4602 21.9453 36.5521C21.6158 36.644 21.2681 36.69 20.9022 36.69C20.5362 36.69 20.1885 36.644 19.859 36.5521C19.5295 36.4602 19.2035 36.3232 18.8809 36.1411Z" fill="white"/>
</svg>
