<svg width="26" height="38" viewBox="0 0 26 38" fill="none" xmlns="http://www.w3.org/2000/svg">
<path d="M20.4657 0.160059C20.6946 0.292748 20.8717 0.499135 20.9681 0.745503C21.0646 0.99187 21.0746 1.26366 20.9966 1.51646L16.7847 15.202H24.5559C24.7843 15.202 25.0077 15.2687 25.1986 15.3942C25.3894 15.5196 25.5394 15.6982 25.6299 15.9078C25.7205 16.1175 25.7476 16.3491 25.708 16.574C25.6684 16.7989 25.5639 17.0073 25.4072 17.1735L6.69827 37.0517C6.51724 37.2442 6.27635 37.3697 6.01486 37.4078C5.75337 37.4459 5.4867 37.3942 5.25831 37.2613C5.02992 37.1284 4.85329 36.9221 4.75719 36.6759C4.6611 36.4298 4.65121 36.1583 4.72915 35.9058L8.941 22.2179H1.16978C0.941397 22.218 0.717992 22.1512 0.527137 22.0258C0.336282 21.9003 0.186333 21.7218 0.0958004 21.5121C0.00526793 21.3025 -0.0218846 21.0709 0.0176943 20.8459C0.0572733 20.621 0.161851 20.4126 0.318518 20.2464L19.0275 0.368196C19.2083 0.17596 19.4488 0.0505383 19.7099 0.0123252C19.971 -0.0258879 20.2374 0.0253544 20.4657 0.15772V0.160059Z" fill="white"/>
</svg>
