<svg width="29" height="38" viewBox="0 0 29 38" fill="none" xmlns="http://www.w3.org/2000/svg">
<path d="M9.46236 37.8495C8.4215 37.8495 7.53078 37.4792 6.79019 36.7386C6.0496 35.998 5.67868 35.1066 5.67742 34.0645V32.1721C5.67742 30.6896 6.00103 29.3176 6.64826 28.0559C7.29548 26.7943 8.1389 25.7376 9.17849 24.886L7.9957 17.0323H3.78495C2.74409 17.0323 1.85336 16.6613 1.11277 15.9195C0.372186 15.1776 0.00126165 14.2869 0 13.2473V5.67742C0 4.63656 0.370925 3.74584 1.11277 3.00525C1.85462 2.26466 2.74535 1.89374 3.78495 1.89247H13.2473V0H20.8172V1.89247H28.3398L24.886 24.886C25.9269 25.7376 26.7709 26.7943 27.4181 28.0559C28.0654 29.3176 28.3884 30.6896 28.3871 32.1721V34.0645C28.3871 35.1054 28.0168 35.9967 27.2762 36.7386C26.5356 37.4804 25.6443 37.8507 24.6021 37.8495H9.46236ZM7.42796 13.2473L6.29247 5.67742H3.78495V13.2473H7.42796ZM18.3816 31.6289C18.7437 31.2656 18.9247 30.8158 18.9247 30.2796C18.9247 29.7434 18.7431 29.2942 18.3797 28.9321C18.0163 28.57 17.5672 28.3884 17.0323 28.3871C16.4973 28.3858 16.0482 28.5675 15.6848 28.9321C15.3215 29.2968 15.1398 29.7459 15.1398 30.2796C15.1398 30.8133 15.3215 31.263 15.6848 31.6289C16.0482 31.9948 16.4973 32.1758 17.0323 32.1721C17.5672 32.1683 18.017 31.9885 18.3816 31.6289ZM12.6796 22.7097H21.3849L23.9398 5.67742H10.1247L12.6796 22.7097Z" fill="white"/>
</svg>
