<svg width="38" height="38" viewBox="0 0 38 38" fill="none" xmlns="http://www.w3.org/2000/svg">
<path fill-rule="evenodd" clip-rule="evenodd" d="M10.2262 0.43088C12.6586 -0.195837 15.217 -0.137903 17.6186 0.598281C20.0202 1.33446 22.1715 2.72024 23.8349 4.60249C25.4982 6.48473 26.6088 8.79018 27.044 11.2641C27.4792 13.738 27.222 16.284 26.3008 18.6209L35.2509 26.1971C35.9297 26.7707 36.482 27.4789 36.873 28.277C37.2639 29.0751 37.485 29.9457 37.5221 30.8336C37.5593 31.7215 37.4118 32.6075 37.0889 33.4355C36.766 34.2635 36.2747 35.0154 35.6463 35.6437C35.0178 36.2721 34.2657 36.7631 33.4377 37.0859C32.6097 37.4086 31.7237 37.5559 30.8357 37.5186C29.9478 37.4812 29.0773 37.26 28.2793 36.8689C27.4813 36.4777 26.7731 35.9253 26.1997 35.2463L18.6274 26.3002C16.2903 27.2229 13.7435 27.4812 11.2686 27.0467C8.79373 26.6122 6.48724 25.5018 4.60411 23.8382C2.72099 22.1746 1.33459 20.0226 0.598211 17.6203C-0.138171 15.2179 -0.195854 12.6586 0.431541 10.2255C0.520002 9.88365 0.698934 9.57192 0.949527 9.32311C1.20012 9.07429 1.51312 8.89759 1.85562 8.81156C2.19811 8.72554 2.55746 8.73338 2.89588 8.83425C3.23431 8.93513 3.5393 9.12531 3.77881 9.38482L9.70464 15.8205L14.1748 14.1761L15.8231 9.70008L9.38353 3.78398C9.12247 3.54456 8.93097 3.23903 8.82928 2.89972C8.72758 2.5604 8.71947 2.19991 8.80581 1.85636C8.89214 1.51282 9.06971 1.19899 9.31974 0.948066C9.56977 0.697141 9.88295 0.518446 10.2262 0.43088Z" fill="white"/>
</svg>
