<svg width="37" height="38" viewBox="0 0 37 38" fill="none" xmlns="http://www.w3.org/2000/svg">
<path d="M18.4128 25.5488C16.656 25.5488 14.9713 24.8509 13.7291 23.6087C12.4869 22.3665 11.789 20.6817 11.789 18.925C11.789 17.1683 12.4869 15.4835 13.7291 14.2413C14.9713 12.9991 16.656 12.3013 18.4128 12.3013C20.1695 12.3013 21.8543 12.9991 23.0965 14.2413C24.3387 15.4835 25.0365 17.1683 25.0365 18.925C25.0365 20.6817 24.3387 22.3665 23.0965 23.6087C21.8543 24.8509 20.1695 25.5488 18.4128 25.5488ZM32.474 20.7607C32.5497 20.1551 32.6065 19.5495 32.6065 18.925C32.6065 18.3005 32.5497 17.676 32.474 17.0325L36.4672 13.9477C36.8268 13.6639 36.9214 13.1529 36.6943 12.7365L32.9093 6.18848C32.6822 5.77213 32.1712 5.6018 31.7549 5.77213L27.0426 7.66463C26.0585 6.92655 25.0365 6.2831 23.8442 5.80998L23.144 0.794854C23.1056 0.571949 22.9895 0.369849 22.8163 0.224362C22.6431 0.0788753 22.424 -0.000605173 22.1978 3.46984e-06H14.6278C14.1546 3.46984e-06 13.7572 0.340654 13.6815 0.794854L12.9813 5.80998C11.789 6.2831 10.7671 6.92655 9.78296 7.66463L5.07063 5.77213C4.65428 5.6018 4.14331 5.77213 3.91621 6.18848L0.13121 12.7365C-0.114815 13.1529 -0.00126476 13.6639 0.35831 13.9477L4.35149 17.0325C4.27579 17.676 4.21901 18.3005 4.21901 18.925C4.21901 19.5495 4.27579 20.1551 4.35149 20.7607L0.35831 23.9023C-0.00126476 24.1862 -0.114815 24.6971 0.13121 25.1135L3.91621 31.6615C4.14331 32.0779 4.65428 32.2293 5.07063 32.0779L9.78296 30.1665C10.7671 30.9235 11.789 31.5669 12.9813 32.04L13.6815 37.0552C13.7572 37.5094 14.1546 37.85 14.6278 37.85H22.1978C22.6709 37.85 23.0683 37.5094 23.144 37.0552L23.8442 32.04C25.0365 31.548 26.0585 30.9235 27.0426 30.1665L31.7549 32.0779C32.1712 32.2293 32.6822 32.0779 32.9093 31.6615L36.6943 25.1135C36.9214 24.6971 36.8268 24.1862 36.4672 23.9023L32.474 20.7607Z" fill="white"/>
</svg>
