<svg width="43" height="37" viewBox="0 0 43 37" fill="none" xmlns="http://www.w3.org/2000/svg">
<path d="M11.5453 33.0185C14.9855 33.0185 17.2866 34.3043 18.3018 35.0295C18.675 35.2365 19.7327 35.8582 19.96 35.8785V4.54031C18.6131 2.03226 14.6539 0.00176901 10.5504 0.00176901C5.36807 0.00176901 0.974565 2.98649 0 4.99664V34.2637C0 35.6318 0.808306 36.15 1.78287 36.15C2.56995 36.15 3.08819 35.8803 3.58608 35.4655C4.80915 34.3671 7.68951 33.0185 11.5453 33.0185ZM30.8633 33.0194C34.7182 33.0194 37.5791 34.3671 38.8225 35.4655C39.2983 35.859 39.8174 36.1491 40.6045 36.1491C41.5791 36.1491 42.3874 35.6318 42.3874 34.2637V4.99487C41.4128 2.98383 37.0397 0 31.8573 0C27.7539 0 23.7946 2.03049 22.4477 4.53854V35.921C22.6759 35.8997 23.7327 35.2577 24.1262 35.0295C25.1211 34.3043 27.4222 33.0194 30.8633 33.0194Z" fill="white"/>
</svg>
