<svg width="39" height="39" viewBox="0 0 39 39" fill="none" xmlns="http://www.w3.org/2000/svg">
<path fill-rule="evenodd" clip-rule="evenodd" d="M14.1243 1.80811C15.4404 0.686698 17.1006 0.0496029 18.829 0.00277823C20.5574 -0.0440465 22.2497 0.502221 23.6245 1.55073L23.9463 1.80811L24.6578 2.4137C25.1758 2.85584 25.8034 3.15005 26.4746 3.26531L26.8115 3.30694L27.7444 3.38264C29.4728 3.52054 31.1014 4.24758 32.358 5.44219C33.6146 6.6368 34.4231 8.22658 34.6482 9.94574L34.6879 10.3242L34.7636 11.2591C34.8172 11.9372 35.0526 12.5884 35.4449 13.144L35.6531 13.4127L36.2625 14.1243C37.3839 15.4404 38.021 17.1006 38.0678 18.829C38.1146 20.5574 37.5683 22.2497 36.5198 23.6245L36.2625 23.9463L35.655 24.6578C35.2128 25.1758 34.9186 25.8034 34.8034 26.4746L34.7617 26.8115L34.6879 27.7444C34.55 29.4728 33.823 31.1014 32.6284 32.358C31.4338 33.6146 29.844 34.4231 28.1248 34.6482L27.7444 34.6879L26.8115 34.7636C26.1333 34.8172 25.4822 35.0526 24.9266 35.4449L24.6578 35.655L23.9444 36.2606C22.6285 37.3823 20.9684 38.0197 19.24 38.0669C17.5116 38.114 15.8192 37.5681 14.4441 36.5198L14.1243 36.2625L13.4127 35.655C12.8948 35.2128 12.2672 34.9186 11.596 34.8034L11.2591 34.7636L10.3261 34.6879C8.59778 34.55 6.96916 33.823 5.71255 32.6284C4.45593 31.4338 3.64749 29.844 3.42238 28.1248L3.38264 27.7463L3.30694 26.8115C3.25335 26.1333 3.018 25.4822 2.62565 24.9266L2.41559 24.6578L1.80811 23.9444C0.686698 22.6283 0.0496029 20.9681 0.00277823 19.2397C-0.0440465 17.5113 0.502221 15.819 1.55073 14.4441L1.80811 14.1243L2.4137 13.4127C2.85584 12.8948 3.15005 12.2672 3.26531 11.596L3.30694 11.2591L3.38264 10.3261C3.52054 8.59778 4.24758 6.96916 5.44219 5.71255C6.6368 4.45593 8.22658 3.64749 9.94574 3.42238L10.3242 3.38264L11.2591 3.30694C11.9372 3.25335 12.5884 3.018 13.144 2.62565L13.4127 2.41559L14.1243 1.80811ZM23.7665 20.9278C23.0136 20.9278 22.2916 21.2268 21.7592 21.7592C21.2268 22.2916 20.9278 23.0136 20.9278 23.7665C20.9278 24.5193 21.2268 25.2414 21.7592 25.7737C22.2916 26.3061 23.0136 26.6052 23.7665 26.6052C24.5193 26.6052 25.2414 26.3061 25.7737 25.7737C26.3061 25.2414 26.6052 24.5193 26.6052 23.7665C26.6052 23.0136 26.3061 22.2916 25.7737 21.7592C25.2414 21.2268 24.5193 20.9278 23.7665 20.9278ZM23.3747 12.0199L12.0199 23.3747C11.8391 23.5493 11.695 23.7581 11.5958 23.989C11.4966 24.2199 11.4444 24.4682 11.4422 24.7195C11.44 24.9708 11.4879 25.22 11.5831 25.4526C11.6782 25.6852 11.8187 25.8965 11.9964 26.0741C12.1741 26.2518 12.3854 26.3924 12.618 26.4875C12.8506 26.5827 13.0998 26.6305 13.3511 26.6284C13.6023 26.6262 13.8507 26.574 14.0816 26.4748C14.3124 26.3756 14.5213 26.2314 14.6958 26.0507L26.0507 14.6958C26.3954 14.3389 26.5862 13.8609 26.5819 13.3647C26.5775 12.8685 26.3785 12.3938 26.0276 12.0429C25.6768 11.6921 25.2021 11.493 24.7059 11.4887C24.2097 11.4844 23.7317 11.6752 23.3747 12.0199ZM14.3041 11.4654C13.5512 11.4654 12.8292 11.7645 12.2968 12.2968C11.7645 12.8292 11.4654 13.5512 11.4654 14.3041C11.4654 15.057 11.7645 15.779 12.2968 16.3114C12.8292 16.8437 13.5512 17.1428 14.3041 17.1428C15.057 17.1428 15.779 16.8437 16.3114 16.3114C16.8437 15.779 17.1428 15.057 17.1428 14.3041C17.1428 13.5512 16.8437 12.8292 16.3114 12.2968C15.779 11.7645 15.057 11.4654 14.3041 11.4654Z" fill="white"/>
</svg>
