<svg width="35" height="35" viewBox="0 0 35 35" fill="none" xmlns="http://www.w3.org/2000/svg">
<path d="M22.7097 34.0645C21.6688 34.0645 20.7781 33.6942 20.0375 32.9536C19.2969 32.213 18.926 31.3217 18.9247 30.2796V22.7097C18.9247 21.6688 19.2957 20.7781 20.0375 20.0375C20.7794 19.2969 21.6701 18.926 22.7097 18.9247H30.2796C31.3204 18.9247 32.2118 19.2957 32.9536 20.0375C33.6955 20.7794 34.0658 21.6701 34.0645 22.7097V30.2796C34.0645 31.3204 33.6942 32.2118 32.9536 32.9536C32.213 33.6955 31.3217 34.0658 30.2796 34.0645H22.7097ZM22.7097 15.1398C21.6688 15.1398 20.7781 14.7695 20.0375 14.0289C19.2969 13.2883 18.926 12.397 18.9247 11.3548V3.78495C18.9247 2.74409 19.2957 1.85336 20.0375 1.11277C20.7794 0.372186 21.6701 0.00126165 22.7097 0H30.2796C31.3204 0 32.2118 0.370925 32.9536 1.11277C33.6955 1.85462 34.0658 2.74535 34.0645 3.78495V11.3548C34.0645 12.3957 33.6942 13.2871 32.9536 14.0289C32.213 14.7708 31.3217 15.141 30.2796 15.1398H22.7097ZM3.78495 15.1398C2.74409 15.1398 1.85336 14.7695 1.11277 14.0289C0.372186 13.2883 0.00126165 12.397 0 11.3548V3.78495C0 2.74409 0.370925 1.85336 1.11277 1.11277C1.85462 0.372186 2.74535 0.00126165 3.78495 0H11.3548C12.3957 0 13.2871 0.370925 14.0289 1.11277C14.7708 1.85462 15.141 2.74535 15.1398 3.78495V11.3548C15.1398 12.3957 14.7695 13.2871 14.0289 14.0289C13.2883 14.7708 12.397 15.141 11.3548 15.1398H3.78495ZM3.78495 34.0645C2.74409 34.0645 1.85336 33.6942 1.11277 32.9536C0.372186 32.213 0.00126165 31.3217 0 30.2796V22.7097C0 21.6688 0.370925 20.7781 1.11277 20.0375C1.85462 19.2969 2.74535 18.926 3.78495 18.9247H11.3548C12.3957 18.9247 13.2871 19.2957 14.0289 20.0375C14.7708 20.7794 15.141 21.6701 15.1398 22.7097V30.2796C15.1398 31.3204 14.7695 32.2118 14.0289 32.9536C13.2883 33.6955 12.397 34.0658 11.3548 34.0645H3.78495Z" fill="white"/>
</svg>
