<svg width="45" height="38" viewBox="0 0 45 38" fill="none" xmlns="http://www.w3.org/2000/svg">
<path d="M20.3914 0C19.3644 0 18.5376 0.826778 18.5376 1.85376V3.70753H1.85376C1.36211 3.70753 0.890603 3.90283 0.542955 4.25048C0.195307 4.59813 0 5.06964 0 5.56129C0 6.05294 0.195307 6.52445 0.542955 6.8721C0.890603 7.21975 1.36211 7.41505 1.85376 7.41505H42.6366C43.1282 7.41505 43.5997 7.21975 43.9474 6.8721C44.295 6.52445 44.4903 6.05294 44.4903 5.56129C44.4903 5.06964 44.295 4.59813 43.9474 4.25048C43.5997 3.90283 43.1282 3.70753 42.6366 3.70753H25.9527V1.85376C25.9527 0.826778 25.1259 0 24.0989 0H20.3914ZM3.70753 11.1226V31.514C3.70753 34.5949 6.18786 37.0753 9.26882 37.0753H35.2215C38.3025 37.0753 40.7828 34.5949 40.7828 31.514V11.1226H3.70753Z" fill="white"/>
</svg>
