<svg width="37" height="37" viewBox="0 0 37 37" fill="none" xmlns="http://www.w3.org/2000/svg">
<path d="M13.8997 27.5089L15.6403 34.6765C15.691 34.8758 15.6878 35.085 15.6312 35.2827C15.5745 35.4804 15.4663 35.6594 15.3178 35.8016C14.75 36.3719 14.0804 36.1513 13.4494 35.4791L8.07271 30.0288L6.24564 31.8507C6.11629 31.9806 5.96238 32.0834 5.79289 32.1531C5.6234 32.2229 5.44171 32.2582 5.25843 32.257C5.07515 32.2558 4.89395 32.2181 4.72538 32.1461C4.55682 32.0742 4.40427 31.9694 4.27664 31.8378C4.14698 31.7074 4.04441 31.5527 3.97484 31.3825C3.90527 31.2123 3.87007 31.03 3.87126 30.8461C3.87246 30.6622 3.91004 30.4804 3.98183 30.3112C4.05362 30.1419 4.1582 29.9885 4.28954 29.8598L6.11145 28.0405L0.61089 22.4651C0.0431566 21.8689 -0.266516 21.158 0.301217 20.589C0.597987 20.3051 1.01088 20.1877 1.41088 20.2922L8.53851 22.1025C9.86208 19.858 11.4407 17.7741 13.2429 15.8923L17.0532 11.9285L6.40822 5.88469C4.74373 4.94277 4.74373 2.5428 6.42112 1.60088C6.96305 1.30411 7.5953 1.21379 8.18883 1.35573L15.5126 3.07183L16.8829 1.70927C17.0187 1.57508 17.1795 1.46897 17.3563 1.39699C17.5332 1.32502 17.7224 1.28859 17.9133 1.28979C18.1042 1.29098 18.293 1.32979 18.4688 1.40398C18.6447 1.47817 18.8043 1.58629 18.9383 1.72217C19.2081 1.99911 19.358 2.37111 19.3556 2.7577C19.3531 3.1443 19.1986 3.5144 18.9254 3.78795L18.8583 3.85504L23.7189 4.99309L26.9447 1.63572C27.4388 1.12281 28.0305 0.713881 28.685 0.432994C29.3394 0.152107 30.0435 0.00493062 30.7557 0.00012178C31.4679 -0.00468707 32.1738 0.132969 32.832 0.404992C33.4902 0.677016 34.0874 1.07791 34.5884 1.58411C35.0883 2.09252 35.4821 2.69537 35.7466 3.35751C36.0111 4.01966 36.1412 4.72784 36.1291 5.44077C36.1171 6.15369 35.9633 6.8571 35.6766 7.50995C35.3899 8.16281 34.9762 8.75206 34.4594 9.24334L31.5214 12.0317L32.8297 18.1735C33.3588 17.9555 33.991 18.0613 34.4129 18.4961C34.5492 18.6318 34.657 18.7932 34.7302 18.971C34.8034 19.1488 34.8405 19.3394 34.8393 19.5317C34.8381 19.724 34.7986 19.9141 34.7232 20.0909C34.6478 20.2678 34.5379 20.4279 34.4 20.5619L33.5226 21.4341L34.8387 27.6121C34.9678 28.2185 34.8645 28.8379 34.5549 29.3669C33.5871 31.0185 31.1743 30.9798 30.2711 29.2895L24.5279 18.6729L20.1254 22.8534C18.2377 24.6417 16.1484 26.2031 13.8997 27.5089ZM31.2943 2.8628C31.1194 2.68458 30.8808 2.58311 30.6312 2.58069C30.3815 2.57827 30.141 2.6751 29.9627 2.8499C29.8737 2.93476 29.8027 3.03659 29.7538 3.14937C29.7048 3.26215 29.679 3.38359 29.6778 3.50652C29.6766 3.62945 29.7001 3.75137 29.7468 3.86508C29.7935 3.9788 29.8625 4.082 29.9498 4.16858L31.9368 6.17113C32.1118 6.34935 32.3503 6.45082 32.6 6.45324C32.8497 6.45566 33.0901 6.35883 33.2684 6.18404C33.3563 6.09854 33.4263 5.99649 33.4746 5.88379C33.5228 5.77109 33.5483 5.64996 33.5494 5.52738C33.5507 5.4048 33.5276 5.28319 33.4816 5.16957C33.4355 5.05594 33.3675 4.95255 33.2813 4.86535L31.2943 2.8628Z" fill="white"/>
</svg>
