<svg width="2510" height="946" viewBox="0 0 2510 946" fill="none" xmlns="http://www.w3.org/2000/svg">
<g clip-path="url(#clip0_4997_51275)">
<path d="M1010.44 700.589L1068.9 783.735C1030.28 822.893 894.053 945.734 690.25 945.734C402.78 945.734 384.545 733.311 98.6838 733.311H15.0171L0 646.947L323.404 317.583H72.4039L91.7115 216.199H502.536L484.838 309L171.088 629.245C411.897 629.245 470.893 846.496 706.876 846.496C851.147 845.96 969.139 745.649 1010.44 700.589Z" fill="#F65C00"/>
<path d="M795.37 204.398C618.919 204.398 497.173 356.206 497.173 531.616C497.173 654.994 577.622 745.113 708.485 745.113C884.936 745.113 1007.75 594.378 1007.75 418.968C1007.75 304.173 934.814 204.398 795.37 204.398ZM725.647 649.629C662.897 649.629 624.818 599.742 624.818 528.398C624.818 431.842 682.205 299.882 780.889 299.882C856.511 299.882 879.573 365.862 879.573 418.968C879.573 521.961 817.895 649.629 725.647 649.629Z" fill="#F65C00"/>
<path d="M1528.53 349.769C1528.53 263.941 1463.63 204.398 1361.73 204.398C1183.13 204.398 1068.9 374.444 1068.9 530.544C1068.9 657.139 1138.08 745.113 1281.28 745.113C1344.03 745.113 1413.22 730.093 1464.17 703.808L1452.37 613.689C1415.36 633 1368.7 647.484 1310.24 647.484C1261.44 647.484 1224.43 629.245 1204.05 594.378C1192.25 573.994 1187.96 539.126 1190.1 520.888C1389.62 525.179 1528.53 482.802 1528.53 349.769ZM1346.18 296.663C1385.33 296.663 1412.14 317.047 1412.14 349.769V350.842C1412.14 412.531 1330.62 430.232 1202.98 428.623C1217.46 365.862 1268.41 296.663 1346.18 296.663Z" fill="#F65C00"/>
<path d="M2381.28 296.663C2423.65 296.663 2459.05 309.537 2477.82 320.266L2510 231.22C2486.4 217.273 2441.89 204.398 2387.72 204.398C2265.44 204.398 2178.55 274.67 2178.55 374.444C2178.55 433.987 2220.92 477.438 2280.45 509.087C2331.4 535.371 2348.57 555.755 2348.57 588.477C2348.57 622.272 2319.07 651.239 2269.19 652.312C2222.53 652.312 2171.58 631.927 2144.76 617.444L2113.12 706.49C2140.47 726.874 2196.79 743.503 2257.39 744.576C2381.82 744.576 2477.28 680.742 2477.28 567.02C2477.28 501.04 2426.33 458.663 2370.02 428.087C2326.58 405.557 2302.98 385.709 2302.98 356.743C2302.98 322.411 2334.62 296.663 2381.28 296.663Z" fill="#F65C00"/>
<path d="M2018.73 76.1942C2018.73 31.6711 2052.52 0.558594 2093.28 0.558594C2131.35 0.558594 2159.24 28.4526 2159.24 67.6115C2158.17 113.207 2124.38 142.174 2082.55 142.174H2080.94C2043.93 141.638 2018.73 114.28 2018.73 76.1942Z" fill="#F65C00"/>
<path d="M1902.34 733.311H2025.7L2124.38 216.199H2001.56L1902.34 733.311Z" fill="#F65C00"/>
<path d="M1770.94 645.874C1734.47 645.874 1715.7 623.345 1724.82 577.212L1777.38 311.683H1893.23L1912.53 216.2H1795.62L1821.36 83.7031L1693.71 120.716L1674.41 216.2H1602L1583.23 311.683H1655.63L1602 584.722C1583.23 682.888 1632.57 744.576 1745.74 744.576C1771.48 744.576 1799.91 738.676 1826.72 731.702L1831.01 635.682C1810.63 641.583 1790.79 645.874 1770.94 645.874Z" fill="#F65C00"/>
</g>
<defs>
<clipPath id="clip0_4997_51275">
<rect width="2510" height="946" fill="white"/>
</clipPath>
</defs>
</svg>
