<svg width="63" height="23" viewBox="0 0 63 23" fill="none" xmlns="http://www.w3.org/2000/svg">
<path d="M0 0.341309V11.749H11.2854V0.341309H0ZM7.81292 8.23886H3.47156V3.85035H7.81292V8.23886Z" fill="black"/>
<path d="M14.7576 3.85126H19.0981V8.23888H14.7576V3.85126Z" fill="black"/>
<path d="M22.5702 0.341309H28.8578C31.1657 0.341309 32.2199 1.89679 32.2199 3.3184C32.2199 4.34239 31.8305 5.00288 30.7855 5.61838C32.1035 6.11087 32.82 6.99921 32.82 8.36963C32.82 10.0084 31.6428 11.7477 28.8661 11.7477H22.5674L22.5702 0.341309ZM26.0043 9.17264H28.2793C29.0906 9.17264 29.4544 8.58661 29.4544 8.06886C29.4544 8.30845 29.5587 7.12378 28.3947 7.12378H26.0043V9.17264ZM26.0124 4.83244H27.8408C28.6767 4.83244 29.0097 4.43903 29.0097 3.86209C29.0097 3.72911 28.9689 2.98395 28.0807 2.98395H26.0124V4.83244Z" fill="black"/>
<path d="M36.3959 0.341309H40.0313L44.1718 11.7337H40.4404L39.8943 10.0271H36.4111L35.948 11.7248H32.2451L36.3959 0.341309ZM38.0658 3.72357L37.1061 7.52827H39.158L38.0658 3.72357Z" fill="black"/>
<path d="M49.9696 3.72957H53.4365C53.4374 1.7953 51.9973 0 48.5808 0C44.8332 0 43.6728 2.09075 43.6728 3.62097C43.6728 6.08829 46.6598 6.74435 46.7526 6.7736C47.1988 6.91567 49.0529 7.41769 49.5153 7.58503C49.9165 7.72977 50.3002 8.05447 50.3002 8.48823C50.3002 9.15315 49.5153 9.47431 48.8619 9.47431C48.4422 9.47431 47.0324 9.33379 47.0324 7.82308H43.4512C43.4512 9.82938 44.8165 12.0746 48.6477 12.0746C52.875 12.0746 53.7595 9.52573 53.7595 8.17017C53.7595 7.06395 53.1397 5.83694 51.709 5.2527C50.8482 4.90139 49.4216 4.59353 48.7051 4.38209C48.344 4.27503 47.1407 4.02879 47.1407 3.28651C47.1407 2.33566 48.6913 2.45868 48.465 2.45868C49.1653 2.45868 49.9696 2.85741 49.9696 3.72957Z" fill="black"/>
<path d="M54.3474 0.338684H63.0001V3.34947H57.805V5.35644H62.4375V8.23335H57.7888V11.7457H54.3306L54.3474 0.338684Z" fill="black"/>
<path d="M4.50315 20.7741L4.49942 20.7599L3.41759 16.65H2.73898L1.64026 20.7741H1.59685L1.59356 20.7594L0.635387 16.65H0.00830078L1.25568 21.5691H1.90666L3.04024 17.4035H3.08234L3.08607 17.4175L4.20167 21.5691H4.85309L6.15506 16.65H5.54157L4.54569 20.7741H4.50315Z" fill="black"/>
<path d="M9.03472 18.6268C8.90899 18.4254 8.73953 18.2556 8.53919 18.1303C8.3344 18.0011 8.07348 17.9351 7.76278 17.9351C7.53493 17.933 7.30924 17.9799 7.10062 18.0725C6.90197 18.1623 6.72397 18.2929 6.5779 18.4559C6.42761 18.6263 6.31112 18.8243 6.23476 19.0391C6.15094 19.2775 6.10944 19.529 6.11219 19.782C6.11895 20.0366 6.15898 20.2892 6.23125 20.5331C6.29516 20.7499 6.40282 20.951 6.54742 21.1236C6.68937 21.2897 6.86685 21.4209 7.06641 21.5073C7.27142 21.5986 7.51743 21.6453 7.79655 21.6453C8.19363 21.6453 8.52757 21.543 8.78849 21.3433C9.04415 21.1469 9.2132 20.8528 9.29279 20.4678H8.75297C8.70078 20.7 8.594 20.876 8.43657 20.9919C8.27914 21.1079 8.068 21.1693 7.8176 21.1693C7.6229 21.1693 7.45187 21.1369 7.30826 21.0711C7.17141 21.0102 7.04964 20.9193 6.95174 20.8051C6.85828 20.6939 6.78916 20.564 6.74892 20.4239C6.70653 20.2765 6.68758 20.1233 6.69279 19.97V19.9513H9.35177C9.3578 19.7282 9.33823 19.505 9.29345 19.2864C9.24703 19.0524 9.1594 18.8286 9.03472 18.6259M6.69148 19.4682L6.69279 19.4478C6.70144 19.3107 6.7321 19.1759 6.78357 19.0488C6.83368 18.9277 6.90515 18.8169 6.99449 18.7217C7.08478 18.6268 7.19316 18.5514 7.31308 18.5C7.4449 18.4441 7.58673 18.4163 7.72968 18.4185C7.87016 18.4169 8.00945 18.4446 8.13882 18.5C8.25886 18.552 8.36813 18.6263 8.46091 18.7192C8.55354 18.8135 8.62712 18.925 8.67754 19.0477C8.73043 19.1751 8.76185 19.3105 8.77051 19.4484L8.77204 19.4688L6.69148 19.4682Z" fill="black"/>
<path d="M13.4529 21.1695C13.267 21.1695 13.1045 21.1318 12.9705 21.0562C12.8389 20.9838 12.7262 20.8809 12.6416 20.7559C12.5558 20.6257 12.4932 20.4813 12.4568 20.3292C12.4175 20.1687 12.3977 20.0039 12.398 19.8385C12.3978 19.6609 12.4163 19.4838 12.4533 19.3101C12.4868 19.1484 12.5495 18.9944 12.6381 18.8555C12.726 18.7224 12.8449 18.6132 12.9843 18.5373C13.129 18.4577 13.3099 18.4174 13.5222 18.4174C13.773 18.4174 13.9758 18.4816 14.1254 18.6093C14.2705 18.7332 14.3687 18.9096 14.417 19.1326H14.9849C14.9665 18.9491 14.912 18.7712 14.8246 18.6093C14.7426 18.4607 14.6306 18.3313 14.4957 18.2296C14.3574 18.1267 14.2012 18.0511 14.0352 18.0067C13.852 17.9574 13.6631 17.9331 13.4735 17.9342C13.1983 17.9342 12.9538 17.9838 12.7469 18.0822C12.5456 18.1751 12.3682 18.3134 12.2281 18.4865C12.0866 18.6652 11.9814 18.8704 11.9185 19.0903C11.8493 19.3335 11.815 19.5855 11.8165 19.8385C11.8139 20.0871 11.8495 20.3346 11.922 20.5722C11.9862 20.7827 12.0928 20.9776 12.2349 21.1447C12.3759 21.3068 12.5522 21.4336 12.7499 21.515C12.9545 21.6017 13.1939 21.6449 13.4603 21.6449C13.9065 21.6449 14.2639 21.5257 14.5227 21.2892C14.7772 21.0569 14.9393 20.7222 15.005 20.2951H14.4446C14.4054 20.5684 14.3036 20.7827 14.142 20.9352C13.9758 21.0904 13.7445 21.1693 13.4529 21.1693" fill="black"/>
<path d="M16.7909 18.1261C16.5585 18.2871 16.3721 18.5071 16.2504 18.764L16.2454 18.7742H16.2263V18.0177H15.7141V21.5691H16.2607V19.9921C16.2577 19.7831 16.2808 19.5746 16.3296 19.3715C16.3705 19.2032 16.4471 19.0459 16.5541 18.9105C16.6619 18.7792 16.8019 18.679 16.9602 18.6197C17.1218 18.5561 17.3189 18.5233 17.546 18.5208V17.9341C17.5324 17.9341 17.5193 17.9341 17.5061 17.9341C17.2211 17.9341 16.9799 17.9991 16.7918 18.1268" fill="black"/>
<path d="M20.5283 18.6268C20.4026 18.4254 20.2331 18.2556 20.0327 18.1303C19.8282 18.0011 19.567 17.9351 19.2563 17.9351C19.0285 17.933 18.8029 17.9798 18.5944 18.0725C18.3957 18.1626 18.2178 18.2935 18.0719 18.4568C17.9216 18.6269 17.805 18.8245 17.7285 19.0391C17.6448 19.2778 17.6035 19.5296 17.6066 19.7829C17.6133 20.0375 17.6533 20.29 17.7254 20.534C17.7895 20.7508 17.8972 20.9518 18.0418 21.1245C18.1837 21.2905 18.3611 21.4217 18.5606 21.5082C18.7656 21.5995 19.0116 21.6462 19.291 21.6462C19.6878 21.6462 20.0218 21.5438 20.2829 21.3441C20.5383 21.1478 20.7076 20.8536 20.7872 20.4687H20.2465C20.1939 20.7014 20.0878 20.8769 19.9308 20.9928C19.7738 21.1088 19.562 21.1702 19.3116 21.1702C19.1169 21.1702 18.9458 21.1378 18.8025 21.072C18.6656 21.0111 18.5438 20.9203 18.4459 20.806C18.3525 20.6948 18.2834 20.5649 18.2431 20.4248C18.2005 20.2772 18.1814 20.1236 18.1863 19.97V19.9513H20.8451C20.8514 19.7282 20.8319 19.505 20.787 19.2864C20.7407 19.0523 20.653 18.8286 20.5283 18.6259M18.185 19.4682L18.1863 19.4478C18.1952 19.3107 18.2259 19.176 18.2773 19.0488C18.3268 18.9272 18.398 18.8158 18.4874 18.7201C18.5777 18.6252 18.686 18.5498 18.806 18.4985C18.9378 18.4426 19.0796 18.4148 19.2226 18.4169C19.363 18.4153 19.5022 18.4431 19.6315 18.4985C19.7513 18.5505 19.8603 18.6251 19.9527 18.7181C20.0455 18.8123 20.1191 18.9239 20.1695 19.0466C20.2227 19.1743 20.2545 19.3101 20.2636 19.4484L20.2651 19.4688L18.185 19.4682Z" fill="black"/>
<path d="M24.388 21.0578C24.3719 20.9928 24.3641 20.8913 24.3641 20.7475V18.9019C24.3641 18.6982 24.3255 18.5308 24.2494 18.4043C24.1765 18.2802 24.0723 18.178 23.9475 18.1082C23.816 18.0364 23.6729 17.989 23.5249 17.9681C23.1741 17.9169 22.8121 17.9207 22.4911 17.9951C22.3241 18.0326 22.1655 18.1013 22.0234 18.1977C21.8884 18.2914 21.7774 18.4163 21.6996 18.5621C21.6213 18.7084 21.5761 18.8881 21.5658 19.0969H22.112C22.1293 18.8372 22.2217 18.6563 22.3881 18.561C22.5545 18.4657 22.7663 18.4165 23.0156 18.4165C23.1096 18.4166 23.2035 18.4237 23.2965 18.4375C23.3877 18.45 23.476 18.4789 23.5572 18.5229C23.6364 18.567 23.7027 18.6315 23.7495 18.7097C23.7992 18.7913 23.8244 18.9001 23.8244 19.0326C23.8244 19.1483 23.79 19.239 23.7218 19.2999C23.6441 19.3659 23.5521 19.4123 23.4532 19.4356C23.3273 19.4691 23.199 19.4928 23.0695 19.5065C22.9275 19.5216 22.7744 19.5462 22.6143 19.5783C22.4646 19.6058 22.3166 19.641 22.1728 19.6825C22.0372 19.7205 21.9092 19.7821 21.7945 19.8645C21.6833 19.9457 21.5922 20.0519 21.5286 20.1748C21.4617 20.3009 21.4275 20.4669 21.4275 20.6657C21.4275 20.843 21.4584 20.9951 21.5187 21.1196C21.5758 21.2402 21.6612 21.3449 21.7673 21.4246C21.8771 21.5059 22.0021 21.564 22.1346 21.5953C22.2817 21.6302 22.4324 21.6473 22.5834 21.6462C22.8171 21.6483 23.049 21.6054 23.2669 21.5199C23.4823 21.4307 23.6721 21.2883 23.819 21.1057L23.8521 21.0647V21.1174C23.8521 21.3051 23.8959 21.4421 23.9801 21.5235C24.0643 21.6048 24.1827 21.6462 24.3279 21.6462C24.4967 21.6462 24.6316 21.619 24.7285 21.5645V21.1433C24.6768 21.1604 24.6229 21.1696 24.5686 21.1708C24.4669 21.1708 24.4068 21.134 24.3884 21.06M23.8183 20.3414C23.8161 20.4363 23.7946 20.5297 23.7552 20.6158C23.7086 20.7188 23.6414 20.8108 23.5578 20.8862C23.4575 20.9756 23.3414 21.0451 23.2156 21.091C23.0763 21.1442 22.9086 21.1717 22.7141 21.1717C22.6262 21.172 22.5384 21.1626 22.4525 21.1436C22.372 21.1275 22.2952 21.096 22.2265 21.0507C22.1621 21.0071 22.1084 20.9493 22.0695 20.8816C22.027 20.8032 22.0059 20.7147 22.0083 20.6254C22.0083 20.4744 22.0432 20.3521 22.112 20.2636C22.1817 20.174 22.273 20.104 22.3771 20.0602C22.4928 20.0105 22.6144 19.976 22.7389 19.9578C22.8643 19.9378 22.9974 19.9194 23.1336 19.9021C23.2651 19.886 23.3899 19.8647 23.5063 19.8401C23.6072 19.8214 23.703 19.7811 23.7872 19.7219L23.8172 19.6985L23.8183 20.3414Z" fill="black"/>
<path d="M30.1148 18.6268C29.9891 18.4253 29.8196 18.2555 29.6191 18.1303C29.4143 18.0011 29.1529 17.9351 28.8424 17.9351C28.6147 17.933 28.389 17.9798 28.1805 18.0725C27.9817 18.1625 27.8037 18.2934 27.6578 18.4568C27.5075 18.6268 27.391 18.8245 27.3146 19.0391C27.2312 19.2776 27.1898 19.529 27.1925 19.782C27.1988 20.0366 27.2387 20.2893 27.3113 20.5332C27.3749 20.7502 27.4824 20.9516 27.6269 21.1245C27.769 21.2902 27.9464 21.4213 28.1456 21.5082C28.3509 21.5995 28.5969 21.6462 28.8764 21.6462C29.2733 21.6462 29.6066 21.5438 29.8675 21.3441C30.1227 21.1478 30.2926 20.8536 30.3718 20.4687H29.8328C29.7802 20.7009 29.6737 20.8769 29.5162 20.9928C29.3588 21.1088 29.1479 21.1702 28.8973 21.1702C28.703 21.1702 28.5317 21.1378 28.3879 21.072C28.2511 21.0111 28.1293 20.9202 28.0314 20.806C27.938 20.6948 27.8689 20.5649 27.8286 20.4248C27.7864 20.2775 27.7677 20.1245 27.7731 19.9713V19.9527H30.4314C30.4375 19.7295 30.4178 19.5063 30.3727 19.2877C30.3263 19.0538 30.2389 18.8301 30.1146 18.6273M27.7836 19.4695L27.7849 19.4491C27.793 19.3119 27.8238 19.1771 27.8759 19.0501C27.9248 18.9283 27.9959 18.8168 28.0853 18.7214C28.1757 18.6266 28.2842 18.5512 28.4041 18.4998C28.536 18.4439 28.6778 18.4161 28.8207 18.4182C29.0228 18.4154 29.2212 18.4738 29.3901 18.5859C29.5591 18.6981 29.6909 18.8589 29.7686 19.0475C29.8221 19.1751 29.8541 19.311 29.8631 19.4493L29.8644 19.4697L27.7836 19.4695Z" fill="black"/>
<path d="M34.5403 21.1695C34.3548 21.1695 34.1924 21.1318 34.058 21.0562C33.9264 20.9837 33.8138 20.8808 33.7291 20.7559C33.6431 20.6257 33.5804 20.4813 33.5438 20.3292C33.5049 20.1686 33.4853 20.0039 33.4855 19.8385C33.485 19.6609 33.5036 19.4837 33.5409 19.3101C33.5742 19.1487 33.6366 18.9948 33.7251 18.8562C33.8133 18.723 33.9323 18.6135 34.0718 18.5373C34.2158 18.4577 34.3969 18.4174 34.6101 18.4174C34.86 18.4174 35.0633 18.4816 35.2126 18.6093C35.3588 18.7332 35.4566 18.9096 35.5042 19.1326H36.0725C36.0541 18.9489 35.9996 18.7708 35.9122 18.6086C35.8301 18.4604 35.718 18.3313 35.5834 18.2296C35.4449 18.1271 35.2887 18.0514 35.1229 18.0067C34.9396 17.9575 34.7506 17.9331 34.5609 17.9342C34.286 17.9342 34.0411 17.9838 33.8345 18.0822C33.6332 18.1749 33.4558 18.3133 33.316 18.4865C33.1743 18.6651 33.0691 18.8703 33.0064 19.0903C32.9373 19.3335 32.903 19.5855 32.9044 19.8385C32.9019 20.0871 32.9374 20.3346 33.0097 20.5722C33.0739 20.7824 33.1799 20.9773 33.3212 21.1447C33.4625 21.3065 33.6389 21.4333 33.8365 21.515C34.0419 21.6017 34.2809 21.6449 34.5465 21.6449C34.994 21.6449 35.3512 21.5257 35.6099 21.2892C35.8633 21.0576 36.0265 20.7229 36.0923 20.2951H35.5334C35.4946 20.5684 35.3933 20.7827 35.2306 20.9352C35.0657 21.0904 34.8337 21.1693 34.5414 21.1693" fill="black"/>
<path d="M39.463 18.2963C39.363 18.1783 39.2358 18.087 39.0927 18.0303C38.9392 17.9667 38.7458 17.9342 38.516 17.9342C38.4075 17.9349 38.2993 17.9465 38.193 17.969C38.0832 17.9914 37.9764 18.0271 37.8749 18.0751C37.775 18.122 37.6829 18.1841 37.6017 18.2593C37.5216 18.3331 37.439 18.4255 37.3945 18.5337L37.3901 18.5454H37.3638V16.65H36.8174V21.5691H37.3638V19.5612C37.3622 19.4073 37.3844 19.2541 37.4296 19.1071C37.4713 18.9735 37.5391 18.8498 37.6289 18.7432C37.7201 18.638 37.8339 18.5553 37.9617 18.5016C38.0944 18.4455 38.2529 18.4173 38.4329 18.4173C38.6609 18.4173 38.8438 18.4838 38.9751 18.6168C39.1065 18.7498 39.1725 18.9309 39.1725 19.1578V21.5691H39.7206V19.2283C39.7221 19.0509 39.7026 18.8739 39.6627 18.701C39.6284 18.5523 39.5602 18.4137 39.4636 18.2963" fill="black"/>
<path d="M43.3839 18.6268C43.2585 18.4249 43.089 18.2547 42.8883 18.1294C42.6838 18.0002 42.4224 17.9341 42.1117 17.9341C41.8839 17.9321 41.6582 17.9789 41.4496 18.0716C41.2509 18.1617 41.0729 18.2926 40.9268 18.4559C40.7768 18.6265 40.6604 18.8244 40.5837 19.039C40.5 19.2775 40.4587 19.529 40.4616 19.782C40.468 20.0366 40.5079 20.2892 40.5802 20.5331C40.6443 20.7499 40.7521 20.9509 40.8968 21.1236C41.0388 21.2894 41.216 21.4206 41.4154 21.5072C41.6204 21.5986 41.8668 21.6453 42.1459 21.6453C42.5428 21.6453 42.8756 21.5429 43.1372 21.3432C43.3924 21.1469 43.5621 20.8532 43.6415 20.4677H43.103C43.0506 20.7 42.944 20.876 42.786 20.9919C42.6279 21.1078 42.4174 21.1692 42.1674 21.1692C41.9729 21.1692 41.8015 21.1369 41.6581 21.071C41.5212 21.0103 41.3994 20.9194 41.3016 20.8051C41.2081 20.6939 41.139 20.564 41.099 20.4239C41.0562 20.2767 41.0372 20.1236 41.0428 19.9704V19.9518H43.7011C43.7072 19.7285 43.6874 19.5054 43.6422 19.2868C43.596 19.0528 43.5086 18.8291 43.3841 18.6263M41.0406 19.4686L41.0424 19.4482C41.0507 19.3111 41.0814 19.1763 41.1332 19.0492C41.1821 18.9274 41.2532 18.8159 41.3428 18.7205C41.4333 18.6258 41.5417 18.5504 41.6616 18.4989C41.7934 18.4428 41.9352 18.4151 42.0782 18.4173C42.2136 18.4158 42.348 18.4416 42.4734 18.4932C42.5988 18.5449 42.7127 18.6213 42.8085 18.7181C42.9013 18.8125 42.9752 18.924 43.0263 19.0466C43.0791 19.1744 43.1107 19.3102 43.1199 19.4484L43.1216 19.4688L41.0406 19.4686Z" fill="black"/>
<path d="M49.0268 18.1733C48.9193 18.0882 48.7954 18.0267 48.6631 17.9927C48.5064 17.9521 48.3452 17.9324 48.1835 17.9342C47.9627 17.9322 47.7449 17.9864 47.5501 18.0917C47.3599 18.196 47.2002 18.3488 47.0868 18.535L47.0649 18.5698L47.0517 18.5315C46.9811 18.3152 46.8568 18.1602 46.6838 18.07C46.5009 17.9776 46.2989 17.9307 46.0944 17.9333C45.6044 17.9333 45.2027 18.1363 44.9427 18.5359L44.937 18.5446H44.915V18.0177H44.4028V21.5691H44.9492V19.3527C44.9529 19.2618 44.9705 19.1721 45.0014 19.0867C45.0396 18.9752 45.0963 18.8711 45.1692 18.7788C45.2521 18.6746 45.3546 18.5879 45.4706 18.5237C45.5936 18.453 45.7434 18.4173 45.9157 18.4173C46.0504 18.4173 46.1628 18.4375 46.2497 18.4783C46.334 18.5156 46.4067 18.5754 46.4599 18.6514C46.5136 18.7295 46.5509 18.8179 46.5696 18.9111C46.5911 19.0176 46.6015 19.1261 46.6005 19.2347V21.5691H47.1475V19.3527C47.1475 19.0716 47.232 18.8429 47.3997 18.6735C47.5674 18.5042 47.8009 18.4178 48.0932 18.4178C48.2366 18.4178 48.3563 18.4399 48.4473 18.4816C48.5342 18.5201 48.6093 18.5813 48.665 18.6589C48.7183 18.7372 48.7542 18.8262 48.7703 18.9198C48.7897 19.024 48.7992 19.1298 48.7986 19.2359V21.5691H49.345V18.957C49.345 18.7753 49.3167 18.6181 49.2608 18.4885C49.2091 18.3658 49.1289 18.2577 49.0268 18.1733Z" fill="black"/>
<path d="M50.8477 17.3344H50.3013V16.65H50.8477V17.3344ZM50.8477 18.0177H50.3013V21.5691H50.8477V18.0177Z" fill="black"/>
<path d="M54.1154 21.4124C54.2548 21.3275 54.3726 21.2107 54.4592 21.0713C54.5469 20.9319 54.5907 20.753 54.5907 20.5394C54.5907 20.3738 54.5581 20.2322 54.4938 20.1182C54.4296 20.0068 54.3422 19.9108 54.2375 19.837C54.1252 19.7583 54.0019 19.697 53.8718 19.655C53.7313 19.6082 53.5885 19.569 53.444 19.5375C53.3067 19.5052 53.1697 19.4742 53.0318 19.4438C52.9045 19.4169 52.7795 19.3798 52.6579 19.333C52.556 19.2941 52.4622 19.2364 52.3812 19.1627C52.3448 19.1287 52.3159 19.0872 52.2965 19.041C52.2772 18.9948 52.2677 18.9449 52.2688 18.8948C52.2653 18.8096 52.2909 18.7258 52.3413 18.6574C52.3911 18.5955 52.4546 18.5463 52.5266 18.5138C52.6058 18.4765 52.6899 18.4511 52.7763 18.4384C52.9609 18.4065 53.1498 18.4103 53.333 18.4495C53.4255 18.4692 53.5143 18.5036 53.5962 18.5515C53.6754 18.5987 53.7429 18.6637 53.7935 18.7414C53.8455 18.8262 53.8767 18.9223 53.8845 19.0218H54.4309C54.4158 18.8159 54.3706 18.6421 54.2971 18.504C54.225 18.3664 54.1193 18.2496 53.9902 18.1647C53.8549 18.0777 53.7044 18.0175 53.5468 17.9874C53.3647 17.9516 53.1796 17.9342 52.9941 17.9353C52.8371 17.9358 52.6807 17.9555 52.5284 17.9938C52.3795 18.03 52.2374 18.0902 52.1076 18.1722C51.9851 18.2519 51.8815 18.3578 51.8041 18.4825C51.7267 18.6082 51.6873 18.7616 51.6873 18.9376C51.6873 19.1634 51.7434 19.3409 51.8546 19.466C51.9707 19.5969 52.1153 19.6989 52.2771 19.7638C52.4565 19.8378 52.6429 19.8933 52.8334 19.9294C53.0324 19.968 53.221 20.0123 53.3942 20.0624C53.5485 20.1023 53.6953 20.1676 53.8288 20.2554C53.9481 20.3379 54.0088 20.4598 54.0088 20.6183C54.0088 20.7335 53.9799 20.8295 53.9211 20.9044C53.8647 20.9788 53.7901 21.037 53.7047 21.0735C53.6142 21.1122 53.519 21.1384 53.4216 21.1513C53.2086 21.1833 52.9917 21.1785 52.7803 21.1371C52.6722 21.1158 52.5684 21.0762 52.4733 21.0199C52.3821 20.9656 52.3054 20.8895 52.2499 20.7982C52.1937 20.7005 52.1623 20.5901 52.1587 20.4771H51.6143C51.6246 20.6874 51.6704 20.8676 51.7484 21.015C51.8252 21.1627 51.9364 21.2893 52.0725 21.3836C52.2145 21.4795 52.373 21.5478 52.5398 21.5849C52.8774 21.6644 53.2594 21.668 53.6341 21.5955C53.8043 21.5647 53.9677 21.5033 54.1165 21.4142" fill="black"/>
<path d="M56.0701 16.9419H55.523V18.0177H54.9404V18.5005H55.523V20.8038C55.523 20.9676 55.5392 21.1017 55.5708 21.2005C55.5954 21.2885 55.6447 21.3674 55.7129 21.4275C55.7863 21.4856 55.8731 21.5238 55.9653 21.5383C56.0921 21.5609 56.2208 21.5713 56.3496 21.5693H56.7776V21.0864H56.5283C56.453 21.087 56.3777 21.0837 56.3027 21.0764C56.252 21.0722 56.2031 21.0553 56.1604 21.0274C56.1243 21.0017 56.0987 20.9637 56.088 20.9204C56.0744 20.8641 56.0684 20.8063 56.0701 20.7484V18.5005H56.7987V18.0177H56.0701V16.9419Z" fill="black"/>
<path d="M26.0802 16.9419H25.532V18.0177H24.9492V18.5005H25.532V20.8038C25.532 20.9676 25.5482 21.1017 25.5798 21.2005C25.6042 21.2886 25.6536 21.3675 25.7219 21.4275C25.7952 21.4857 25.8821 21.5239 25.9743 21.5383C26.101 21.5609 26.2297 21.5713 26.3584 21.5693H26.7864V21.0864H26.5371C26.4619 21.087 26.3866 21.0837 26.3117 21.0764C26.2608 21.0722 26.2117 21.0553 26.1687 21.0274C26.133 21.0015 26.1075 20.9635 26.0968 20.9204C26.0834 20.8641 26.0775 20.8062 26.0793 20.7484V18.5005H26.8077V18.0177H26.0793L26.0802 16.9419Z" fill="black"/>
<path d="M58.1542 18.807L58.1492 18.817H58.1299V18.0177H57.6177V21.5691H58.1641V20.0338C58.1614 19.8255 58.1847 19.6176 58.2336 19.4152C58.2743 19.2468 58.3504 19.0892 58.4568 18.9533C58.5648 18.8223 58.7046 18.722 58.8626 18.6623C59.0245 18.5984 59.2216 18.5663 59.4485 18.5641V17.9767C59.1459 17.971 58.8922 18.0357 58.6949 18.1687C58.4626 18.3301 58.2762 18.5501 58.1542 18.807Z" fill="black"/>
<path d="M61.2549 22.4966C61.3313 22.3535 61.3984 22.2054 61.4557 22.0534L62.9919 18.0179H62.4148L61.418 20.9549H61.3781L61.3735 20.9416L60.3406 18.0177H59.7231L61.1231 21.568L61.1205 21.5744L60.8793 22.1781C60.8332 22.2758 60.7657 22.3616 60.682 22.429C60.6055 22.4876 60.5042 22.5166 60.3816 22.5166C60.3199 22.5164 60.2587 22.5067 60.2 22.4876C60.1518 22.4725 60.1042 22.4561 60.0569 22.4401V22.9421C60.1162 22.9632 60.1776 22.978 60.2399 22.9865C60.3074 22.9953 60.3754 22.9998 60.4434 22.9998C60.5577 23.0021 60.6716 22.9849 60.7802 22.949C60.8766 22.9136 60.9646 22.8582 61.0385 22.7863C61.1247 22.7012 61.1976 22.6034 61.2549 22.4962" fill="black"/>
</svg>
