<svg width="87" height="27" viewBox="0 0 87 27" fill="none" xmlns="http://www.w3.org/2000/svg">
<g clip-path="url(#clip0_46_167)">
<path d="M13.0522 0.991699C6.34203 0.991699 0.887207 6.46283 0.887207 13.1921C0.887207 17.4548 3.0634 21.2025 6.36831 23.3871V16.2467H5.13902V21.1262C4.55157 20.4066 3.93561 19.5092 3.42354 18.6355C2.50112 17.0174 2.01501 15.2451 2.01501 13.1919C2.01501 7.02712 6.9567 2.01919 13.0528 2.01919C19.1484 2.01919 24.0912 7.02712 24.0912 13.1919C24.0912 15.2451 23.5787 17.0166 22.6549 18.662C22.1685 19.5093 21.5282 20.4066 20.9408 21.1262V16.2467H19.7365V23.3886C23.0406 21.204 25.2176 17.455 25.2176 13.1922C25.2176 6.46194 19.7623 0.991849 13.0526 0.991849L13.0522 0.991699ZM50.365 1.63523L48.7523 1.96814V2.40413L49.469 2.55874V10.391L48.7259 10.5442V11.0596H51.3123V10.5205L50.6984 10.391V6.25539C51.0561 5.94729 51.4163 5.69125 51.9027 5.69125C52.6196 5.69125 52.6195 6.43624 52.6195 6.95045V10.4175L52.0055 10.5457V11.0611H54.567V10.522L53.9003 10.3924V6.35989C53.9003 5.43489 53.3881 4.76781 52.3626 4.76781C51.6728 4.76781 51.1587 5.15219 50.6985 5.51166V1.63515H50.3652L50.365 1.63523ZM61.4034 1.63523C60.9681 1.63523 60.5839 1.9942 60.5839 2.45703C60.5831 2.91775 60.9683 3.27748 61.4299 3.27748C61.8651 3.27748 62.248 2.91776 62.248 2.45703C62.248 1.99417 61.8643 1.63523 61.4034 1.63523ZM33.0286 2.14644C32.4647 2.14644 31.9264 2.22305 31.3632 2.22305H29.802V2.76352L30.6729 2.91674V10.3909L29.802 10.5441V11.0581H31.2855C31.5934 11.0581 32.9756 11.0832 33.258 11.0832C33.9763 11.0839 35.1801 11.1101 35.8707 9.9298C36.0506 9.59532 36.1797 9.18417 36.1526 8.69706C36.1526 8.08016 35.9468 7.5156 35.5123 7.05196C35.1027 6.61621 34.6415 6.46169 34.1302 6.35828C34.7695 6.07587 35.6664 5.48528 35.6664 4.25223C35.6664 3.7644 35.4624 3.2256 35.1289 2.8412C34.4888 2.14584 33.5143 2.14612 33.0287 2.14612L33.0286 2.14644ZM32.7981 2.71198C33.2582 2.71198 34.1802 2.91876 34.1802 4.40725C34.1802 6.07751 33.1821 6.12887 32.5926 6.12887H31.9536V2.86668C32.2608 2.76469 32.4396 2.71198 32.7981 2.71198ZM13.0522 3.6369L9.33781 6.53848L10.0046 7.41326L13.0522 5.04947L16.1011 7.41326L16.7651 6.53848L13.0522 3.6369ZM39.8156 4.63843C38.0226 4.63843 37.2805 6.4875 37.2805 8.00515C37.2805 10.0071 38.3558 11.188 39.7391 11.188C41.0968 11.188 42.3256 10.0322 42.3256 7.84911C42.3256 5.04922 40.558 4.63843 39.8156 4.63843ZM45.7316 4.6635C43.8868 4.6635 43.4008 6.64197 43.4008 8.07905C43.4008 9.92902 44.1946 11.188 45.7053 11.188C46.883 11.1894 47.3963 10.6996 47.9084 9.69899L47.3458 9.46637C47.0898 9.87716 46.7306 10.2868 46.1915 10.2868C44.937 10.2868 44.7322 8.84975 44.6817 7.82135H47.9334C47.9086 6.30729 47.6257 4.66353 45.7319 4.66353L45.7316 4.6635ZM73.0027 4.6649C71.773 4.6649 70.8011 5.51301 70.8011 6.79746C70.8011 7.8758 71.4388 8.31257 71.8499 8.56926C71.1827 8.98004 70.6733 9.41587 70.6733 9.9037C70.6733 10.3409 70.9811 10.5972 71.39 10.7255C70.9548 11.0343 70.4177 11.418 70.4177 12.0613C70.4177 13.0112 71.5947 13.3706 72.6708 13.3706C74.6415 13.3706 75.7448 12.3947 75.7448 11.2144C75.7448 10.084 75.0768 9.69944 73.9766 9.67383L72.3376 9.6209C72.2352 9.6209 71.9015 9.54496 71.9015 9.33814C71.9015 9.1841 72.1322 8.97951 72.364 8.79907C72.5944 8.85042 72.8753 8.90215 73.1058 8.90215C74.0019 8.90215 75.2311 8.26029 75.2311 6.8211C75.2311 6.30903 75.0522 5.97412 74.7713 5.5619L75.795 5.58975V4.81944L74.3351 4.86959C73.9006 4.86959 73.4639 4.66482 73.003 4.66482L73.0027 4.6649ZM78.9701 4.6649C77.126 4.6649 76.6406 6.64261 76.6406 8.08044C76.6406 9.93041 77.4338 11.1881 78.9451 11.1881C80.1222 11.1881 80.6348 10.6989 81.1467 9.69904L80.5841 9.46642C80.3288 9.87792 79.9696 10.2882 79.4312 10.2882C78.1753 10.2882 77.9719 8.84965 77.9199 7.82409H81.173C81.1474 6.31003 80.8653 4.6649 78.9701 4.6649ZM65.4474 4.71504L63.8598 5.12734V5.64133L64.6029 5.71794V10.3927L63.8598 10.5459V11.0599H66.4976V10.5208L65.8572 10.3926V6.20554C66.1908 5.89744 66.5743 5.61633 67.0351 5.61633C67.7527 5.61633 67.7533 6.3606 67.7533 6.66799V10.4178L67.0865 10.546V11.0599H69.673V10.5209L69.0062 10.3927V6.36016C69.0062 5.35814 68.4953 4.74157 67.4463 4.74157C66.78 4.74157 66.2675 5.10307 65.8058 5.48821V4.71512L65.4474 4.71504ZM83.9119 4.71643L82.3505 5.12596V5.53827L83.0937 5.66781V10.3927L82.3505 10.5459V11.0599H85.1925V10.5194L84.2965 10.3913V7.0274C84.2965 6.82059 84.5776 6.17965 85.0897 5.94785L85.755 6.30862C85.9598 6.12819 86.244 5.92205 86.244 5.53696C86.244 5.02489 85.9105 4.79311 85.4994 4.79311C84.9625 4.79311 84.6812 5.20517 84.2701 5.89911V4.71651H83.9117L83.9119 4.71643ZM57.1007 4.71783L55.5395 5.12736V5.53827L56.2813 5.66781V10.3927L55.5395 10.5459V11.0613H58.3815V10.5208L57.4855 10.3913V7.02877C57.4855 6.82123 57.793 6.17965 58.305 5.94787L58.9718 6.30725C59.151 6.12682 59.4572 5.92279 59.4316 5.53693C59.4316 5.02416 59.0989 4.79308 58.7148 4.79308C58.1779 4.79308 57.8701 5.20586 57.4605 5.89908V4.7179L57.1007 4.71783ZM61.8387 4.76797L60.226 5.1775V5.61349L60.8914 5.7695V10.3927L60.226 10.5459V11.0599H62.8651V10.5208L62.147 10.3927V4.76804L61.8387 4.76797ZM72.9775 5.23043C73.7967 5.23043 73.8748 6.15436 73.8748 6.84902C73.8748 7.49088 73.7706 8.28651 73.0274 8.28651C72.2345 8.28651 72.1315 7.43982 72.1315 6.74594C72.1315 6.10336 72.1832 5.23043 72.9775 5.23043ZM39.8402 5.2555C40.7612 5.2555 40.9417 6.77001 40.9417 7.82266C40.9417 8.64496 40.8404 10.5459 39.7388 10.5459C39.0219 10.5459 38.6373 9.5437 38.6373 8.02753C38.6373 7.31007 38.6874 5.2555 39.8402 5.2555ZM45.7562 5.28057C46.525 5.28057 46.6037 6.43536 46.6286 7.20707H44.6812C44.758 6.43541 44.9369 5.28057 45.7562 5.28057ZM78.995 5.28057C79.7638 5.28057 79.8403 6.43821 79.8659 7.20707H77.9185C77.9968 6.43825 78.1743 5.28057 78.995 5.28057ZM31.9526 6.74452H32.5152C33.3864 6.74452 34.6932 6.87497 34.6932 8.61935C34.6924 9.28761 34.4619 9.92983 33.8986 10.2379C33.5658 10.4426 33.1306 10.5458 32.7708 10.5458C32.4379 10.5458 32.183 10.4957 31.9526 10.3424L31.9526 6.74452ZM12.4368 8.3101V25.3646C12.6423 25.3646 12.8459 25.3911 13.0521 25.3911C13.2563 25.3911 13.4626 25.3646 13.6411 25.3646V8.3101H12.4368ZM10.0046 8.31149V25.0036C10.4392 25.1327 10.7993 25.2093 11.2089 25.2599V8.3102H10.0046V8.31149ZM14.8691 8.31149V25.2881C15.2787 25.2111 15.715 25.1088 16.0734 25.0054V8.31327H14.8691V8.31149ZM72.1055 10.8298C73.4119 10.9069 73.9489 10.9826 74.3835 11.0597C74.6395 11.1103 74.8197 11.2382 74.8197 11.6753C74.8197 12.2402 73.9997 12.6769 72.9501 12.6769C72.182 12.6769 71.618 12.3683 71.618 11.8035C71.618 11.3171 71.8743 11.0609 72.1055 10.8298ZM53.5663 14.7328L51.9536 15.0922V15.5282L52.6703 15.6062V23.5154L51.9272 23.67V24.184H54.5663V23.6436L53.8996 23.4904V14.7332H53.5662L53.5663 14.7328ZM57.1778 14.7328L55.5637 15.0922V15.5282L56.2805 15.6578V23.5171L55.5387 23.6703V24.1843H58.1501V23.6466L57.5097 23.492V19.3814C57.8689 19.0733 58.2283 18.7908 58.714 18.7908C59.4565 18.7908 59.4308 19.5358 59.4308 20.05V23.5421L58.8168 23.6703V24.1842H61.3783V23.6466L60.7116 23.492V19.4594C60.7116 18.5337 60.2002 17.8923 59.2002 17.8923C58.509 17.8923 57.9699 18.251 57.5097 18.6362V14.7332H57.1777L57.1778 14.7328ZM69.2375 14.7328C68.803 14.7328 68.393 15.1176 68.393 15.5797C68.393 16.0162 68.7767 16.4015 69.2375 16.4015C69.6721 16.4015 70.0321 16.0161 70.0321 15.5532C70.0321 15.1175 69.6984 14.7328 69.2375 14.7328ZM29.8504 15.3235V15.8876L30.6713 16.0157V23.5154L29.8518 23.67V24.184H32.7702V23.6435L32.0284 23.4903V16.0158L32.7966 15.8612V15.3235L29.8504 15.3235ZM7.57021 16.247V24.0792C7.95354 24.286 8.3649 24.4663 8.77312 24.6196V16.2469L7.57021 16.247ZM17.3022 16.247V24.6462C17.7111 24.4664 18.1232 24.2861 18.5329 24.0792V16.2472H17.3022V16.247ZM42.8618 17.7875C41.9017 17.7875 41.0986 18.3049 40.7936 19.1414H40.7921C40.706 19.3768 40.6587 19.6383 40.6587 19.9215C40.6587 20.9998 41.2985 21.4087 41.7075 21.6654C41.0432 22.077 40.556 22.5385 40.556 23.0264C40.556 23.4379 40.8375 23.6963 41.2727 23.8482C40.8119 24.1313 40.2754 24.5414 40.2754 25.1839C40.2754 26.1353 41.4531 26.4933 42.5285 26.4933C44.5013 26.4933 45.6025 25.518 45.6025 24.3105C45.6025 23.2072 44.9366 22.8457 43.8357 22.795L42.1952 22.7184C42.0921 22.7184 41.7604 22.6682 41.7604 22.4607C41.7604 22.2817 41.9912 22.077 42.248 21.8952C42.4784 21.9729 42.7357 21.9996 42.9647 21.9996C43.8615 21.9996 45.09 21.3834 45.09 19.9199C45.09 19.6197 45.0226 19.378 44.9052 19.1413C44.8313 18.9908 44.739 18.8455 44.6288 18.6858L45.679 18.7122V17.9406L44.1941 17.9921C43.7574 17.9935 43.3229 17.7874 42.862 17.7874L42.8618 17.7875ZM48.8279 17.7875C46.9838 17.7875 46.4984 19.7666 46.4984 21.2044C46.4984 23.0544 47.2909 24.3107 48.8016 24.3107C49.98 24.3107 50.4932 23.8237 51.006 22.8231L50.442 22.5905C50.186 23.0005 49.8268 23.4123 49.2891 23.4123C48.0339 23.4123 47.8283 21.9738 47.7778 20.9468H51.0295C51.0054 19.432 50.7217 17.7875 48.8279 17.7875ZM64.6804 17.7875C62.8369 17.7875 62.3496 19.7666 62.3496 21.2044C62.3496 23.0544 63.1442 24.3107 64.6554 24.3107C65.8325 24.3107 66.3457 23.8237 66.8585 22.8231L66.2946 22.5905C66.0385 23.0005 65.6786 23.4123 65.1417 23.4123C63.8871 23.4123 63.6809 21.9738 63.6303 20.9468H66.8821C66.8579 19.432 66.575 17.7875 64.6804 17.7875ZM73.283 17.814L71.6689 18.2235V18.6595L72.4107 18.7891V23.5139L71.6689 23.6686V24.1825H74.254V23.6435L73.6679 23.4903V19.3532C73.9751 19.0708 74.3061 18.764 74.8693 18.764C75.5094 18.764 75.6639 19.3543 75.6639 19.8421V23.5139L74.9472 23.6685V24.1825H77.5072V23.6434L76.8918 23.4902V19.3796C77.251 19.0451 77.5855 18.7639 78.0975 18.7639C78.7888 18.7639 78.8393 19.4825 78.8393 19.817V23.5138L78.1739 23.6698V24.1838H80.8367V23.6433L80.1185 23.4901V19.431H80.1197C80.1197 18.4048 79.48 17.8905 78.5056 17.8905C77.7887 17.8905 77.2516 18.251 76.765 18.7388C76.5104 18.1989 75.946 17.9156 75.3316 17.9156C74.7171 17.9156 74.1274 18.198 73.6147 18.6594V17.814H73.2828L73.283 17.814ZM35.331 17.8153L33.7434 18.2249V18.7403L34.4865 18.8419V23.518L33.7434 23.6712V24.1852H36.3812V23.6448L35.7144 23.4916V19.3058C35.7806 19.2488 35.8455 19.1942 35.9131 19.1428C36.2168 18.911 36.5411 18.7403 36.9188 18.7403C37.2786 18.7403 37.4577 18.921 37.5466 19.1442C37.6362 19.3667 37.6369 19.6258 37.6369 19.7919V23.5418L36.9688 23.6713V24.1853H39.5579V23.6448L38.8911 23.4916V19.4577C38.8911 19.3486 38.8845 19.2427 38.8717 19.1429C38.7707 18.3463 38.263 17.8405 37.3284 17.8405C36.6642 17.8405 36.1502 18.2262 35.6894 18.5857V17.8154L35.331 17.8153ZM69.6481 17.8906L68.0326 18.3015V18.7138L68.6994 18.8656V23.5138L68.0326 23.6698V24.1838H70.6454V23.6433L69.9536 23.4901V17.8905L69.6481 17.8906ZM42.8354 18.328C43.3467 18.328 43.5782 18.6957 43.6799 19.1429H43.6815C43.7441 19.4139 43.7579 19.7106 43.7579 19.9717C43.7579 20.5871 43.6551 21.4092 42.8855 21.4092C42.0918 21.4092 42.016 20.5361 42.016 19.8686C42.016 19.6411 42.022 19.3804 42.0632 19.1415H42.0647C42.1408 18.7029 42.3392 18.328 42.8356 18.328L42.8354 18.328ZM48.8541 18.4046C49.6222 18.4046 49.7002 19.5601 49.7251 20.3311H47.7777C47.8545 19.5601 48.0334 18.4046 48.8541 18.4046ZM64.7067 18.4046C65.4762 18.4046 65.552 19.5601 65.579 20.3311H63.6316C63.7084 19.5601 63.8881 18.4046 64.7067 18.4046ZM41.965 23.9527C43.2715 24.0297 43.8106 24.0806 44.2458 24.1825C44.5018 24.2332 44.7056 24.3617 44.7056 24.7982C44.7056 25.3638 43.8863 25.7997 42.836 25.7997C42.0686 25.7997 41.5039 25.467 41.5039 24.9264C41.5039 24.4407 41.736 24.1567 41.965 23.9527Z" fill="#1A347F"/>
</g>
<defs>
<clipPath id="clip0_46_167">
<rect width="87" height="27" fill="white"/>
</clipPath>
</defs>
</svg>
