<svg width="126" height="44" viewBox="0 0 126 44" fill="none" xmlns="http://www.w3.org/2000/svg">
<rect width="126" height="44" rx="22" fill="#252525"/>
<path d="M25.7818 20.4234L36.0643 15.6138V17.3434L27.6535 21.1815L36.0406 25.0197L36.0643 26.7492L25.7818 21.9397V20.4234ZM43.0772 16.7511C44.6409 16.7511 45.8097 17.3592 46.5837 18.5754V16.1825C46.5837 15.5507 46.5679 15.1637 46.5363 15.0215C46.4573 14.5319 46.2362 14.2871 45.8729 14.2871C45.7466 14.2871 45.5649 14.3108 45.328 14.3582C45.1069 14.4055 44.9331 14.4292 44.8068 14.4292C44.2224 14.4292 43.9302 14.1765 43.9302 13.6711C43.9302 13.1498 44.325 12.8892 45.1148 12.8892C45.2411 12.8892 45.4702 12.905 45.8018 12.9366C46.3073 12.984 46.5679 13.0077 46.5837 13.0077C46.7258 13.0077 46.9312 12.9919 47.1997 12.9603C47.4682 12.9287 47.6735 12.9129 47.8157 12.9129C48.258 12.9129 48.4791 13.2288 48.4791 13.8606V14.1212C48.4633 14.1686 48.4475 14.5872 48.4317 15.3769C48.4317 15.4717 48.408 16.0798 48.3606 17.2012C48.329 17.991 48.3132 18.5912 48.3132 19.0018V21.3237L48.3606 25.2803C48.3764 26.3228 48.4238 26.9704 48.5028 27.2231C48.5817 27.4758 48.7713 27.6022 49.0714 27.6022C49.2767 27.6022 49.4347 27.5864 49.5452 27.5548C49.798 27.5232 49.9717 27.5074 50.0665 27.5074C50.6509 27.5074 50.9431 27.768 50.9431 28.2892C50.9431 28.8263 50.5877 29.0948 49.8769 29.0948C49.719 29.0948 49.4742 29.0711 49.1425 29.0237C48.8266 28.9921 48.5896 28.9763 48.4317 28.9763C48.3843 28.9763 48.2027 28.9921 47.8868 29.0237C47.6972 29.0711 47.5314 29.0948 47.3892 29.0948C46.9628 29.0948 46.7495 28.8105 46.7495 28.2418V28.1234L46.7732 27.7206C45.9361 28.8421 44.7199 29.4028 43.1246 29.4028C41.5135 29.4028 40.2184 28.8184 39.2391 27.6495C38.2598 26.4807 37.7702 24.9486 37.7702 23.0532C37.7702 21.1421 38.2519 19.6178 39.2154 18.4806C40.1789 17.3276 41.4662 16.7511 43.0772 16.7511ZM46.4415 25.1145C46.5047 24.5932 46.5363 23.9219 46.5363 23.1006C46.5363 22.0424 46.4968 21.3237 46.4178 20.9446C46.2757 20.1549 45.9361 19.5389 45.3991 19.0966C44.7673 18.5754 44.0407 18.3148 43.2194 18.3148C42.1137 18.3148 41.245 18.7333 40.6132 19.5705C39.9972 20.4076 39.6892 21.5527 39.6892 23.0058C39.6892 24.5064 40.013 25.691 40.6606 26.5597C41.3082 27.4126 42.1927 27.8391 43.3142 27.8391C44.1671 27.8391 44.8778 27.5943 45.4465 27.1046C46.0151 26.5992 46.3468 25.9358 46.4415 25.1145ZM62.7326 22.0345C62.7326 22.6347 62.6931 23.0058 62.6141 23.148C62.5352 23.2744 62.3061 23.3375 61.9271 23.3375H54.3929C54.1876 23.3375 54.0533 23.3691 53.9901 23.4323C53.927 23.4797 53.8954 23.5666 53.8954 23.6929C53.8954 24.8775 54.2507 25.8647 54.9615 26.6545C55.6723 27.4442 56.5568 27.8391 57.6151 27.8391C58.31 27.8391 58.9418 27.6495 59.5104 27.2705C60.0948 26.8914 60.4739 26.4096 60.6477 25.8252L60.8609 25.1382C60.9715 24.7591 61.2321 24.5695 61.6427 24.5695C62.2272 24.5695 62.5194 24.8696 62.5194 25.4698C62.5194 26.4965 61.9981 27.4126 60.9557 28.2182C59.9132 29.0079 58.7286 29.4028 57.4018 29.4028C55.7434 29.4028 54.4245 28.8499 53.4452 27.7443C52.4659 26.6229 51.9763 25.1224 51.9763 23.2428C51.9763 21.3158 52.4975 19.7521 53.54 18.5517C54.5824 17.3513 55.9408 16.7511 57.6151 16.7511C59.0998 16.7511 60.3239 17.2486 61.2874 18.2437C62.2508 19.2388 62.7326 20.5024 62.7326 22.0345ZM54.1323 21.4185C54.1323 21.6396 54.306 21.7502 54.6535 21.7502H60.316C60.6477 21.7502 60.8135 21.6396 60.8135 21.4185C60.8135 20.5813 60.4976 19.8548 59.8658 19.2388C59.234 18.6228 58.4917 18.3148 57.6387 18.3148C56.7542 18.3148 55.9487 18.6386 55.2221 19.2862C54.4956 19.9179 54.1323 20.6287 54.1323 21.4185ZM68.0236 19.9732L70.7956 27.3652L73.4728 19.9732C73.6307 19.531 73.7097 19.2467 73.7097 19.1203C73.7097 18.7728 73.5439 18.5991 73.2122 18.5991C73.0858 18.5991 72.8963 18.6307 72.6436 18.6938C72.4066 18.7412 72.225 18.7649 72.0986 18.7649C71.5774 18.7649 71.3168 18.5043 71.3168 17.9831C71.3168 17.4303 71.6959 17.1538 72.454 17.1538C72.4856 17.1538 72.5488 17.1538 72.6436 17.1538C72.7225 17.1696 72.7857 17.1775 72.8331 17.1775L73.8282 17.3197C74.0493 17.3513 74.2783 17.3671 74.5153 17.3671C74.8312 17.3671 75.3524 17.3276 76.079 17.2486C76.5212 17.2012 76.8371 17.1775 77.0266 17.1775C77.7058 17.1775 78.0454 17.4382 78.0454 17.9594C78.0454 18.4806 77.769 18.7412 77.2162 18.7412C77.0424 18.7412 76.9161 18.7254 76.8371 18.6938C76.6002 18.6465 76.4343 18.6228 76.3396 18.6228C76.0553 18.6228 75.7631 19.0018 75.463 19.76L72.1223 28.2892C71.838 29.0158 71.3563 29.3791 70.6771 29.3791C70.0295 29.3791 69.5636 29.0158 69.2793 28.2892L65.8676 19.5231C65.6464 18.9387 65.3858 18.6465 65.0857 18.6465C64.9752 18.6465 64.8093 18.6702 64.5882 18.7175C64.3671 18.7649 64.2012 18.7886 64.0906 18.7886C63.5694 18.7886 63.3088 18.5438 63.3088 18.0542C63.3088 17.4855 63.6721 17.2012 64.3986 17.2012C64.525 17.2012 64.6198 17.2091 64.683 17.2249L65.678 17.3197C66.0097 17.3513 66.3414 17.3671 66.6731 17.3671C66.9416 17.3671 67.3365 17.3434 67.8577 17.296L68.6396 17.2249C68.7185 17.2091 68.8291 17.2012 68.9713 17.2012C69.6662 17.2012 70.0137 17.4697 70.0137 18.0068C70.0137 18.5122 69.7136 18.7649 69.1134 18.7649C68.9239 18.7649 68.7896 18.757 68.7106 18.7412C68.4105 18.6781 68.221 18.6465 68.142 18.6465C67.8893 18.6465 67.763 18.757 67.763 18.9782C67.763 19.0887 67.7945 19.2467 67.8577 19.452L68.0236 19.9732ZM86.0436 14.0975L79.2676 31.464C79.0623 31.9852 78.849 32.5696 78.6279 33.2172C78.4858 33.6121 78.2725 33.8095 77.9882 33.8095H77.2301C76.9931 33.8095 76.8747 33.7227 76.8747 33.5489C76.8747 33.4857 76.8984 33.4147 76.9458 33.3357L77.1827 32.7434L77.467 32.0563L83.627 16.3009C83.8007 15.8429 84.0692 15.1084 84.4325 14.0975L84.7642 13.1735C84.8906 12.8418 85.1196 12.676 85.4513 12.676H86.1621C86.3674 12.676 86.4701 12.7629 86.4701 12.9366C86.4701 13.0156 86.399 13.2288 86.2568 13.5763C86.1779 13.7658 86.1068 13.9396 86.0436 14.0975ZM98.3492 21.9397L88.0667 26.7492V24.996L96.4775 21.1815L88.0904 17.3434L88.0667 15.6138L98.3492 20.4234V21.9397Z" fill="white"/>
</svg>
