<svg width="62" height="31" viewBox="0 0 62 31" fill="none" xmlns="http://www.w3.org/2000/svg">
<mask id="mask0_647_4030" style="mask-type:luminance" maskUnits="userSpaceOnUse" x="0" y="0" width="62" height="31">
<path d="M62 0H0V31H62V0Z" fill="white"/>
</mask>
<g mask="url(#mask0_647_4030)">
<path d="M41.1159 16.1064C39.9938 16.1064 39.5234 19.5065 39.5234 20.0686C39.5234 20.5698 39.6981 20.8069 40.1349 20.8069C41.257 20.8069 41.7274 17.3933 41.7274 16.8447C41.7274 16.2961 41.5258 16.1064 41.1159 16.1064Z" fill="white"/>
<path d="M18.8756 16.6752C18.2978 17.3525 17.9551 18.9373 17.9551 19.9465C17.9551 20.4951 18.1096 20.7322 18.4859 20.7322C18.8152 20.7322 19.3729 20.1632 19.4401 19.8991L20.1859 16.3433C20.0918 16.262 19.9507 16.2349 19.8567 16.2349C19.6551 16.2349 19.2654 16.2214 18.8756 16.6752Z" fill="white"/>
<path d="M62 0L0 10.9655L3.56129 31L62 20.5764V0ZM10.3613 22.5202H3.83678L6.14826 11.5615H12.4712L11.7791 13.8711H8.45974L8.07001 15.7134H10.7847L10.3143 17.9484H7.59965L7.12929 20.1768H10.8586L10.3613 22.5202ZM13.2574 22.7234C10.9661 22.7234 11.1677 21.5314 11.5104 19.9058L12.6795 14.3655C13.076 12.4894 13.1096 11.8934 13.0961 11.4328L15.9183 10.9587C15.9519 11.3515 15.8578 12.1846 15.6831 12.9906L14.4064 19.0118C14.1108 20.4409 14.0772 20.8202 14.6886 20.8202C14.7827 20.8202 14.8768 20.8066 14.9843 20.7728L15.0649 22.4728C14.6752 22.615 14.0033 22.7234 13.2574 22.7234ZM20.2389 22.8318C19.9096 22.6557 19.6744 22.168 19.6274 21.87C19.2713 22.2493 18.4717 22.764 17.5377 22.764C15.8981 22.764 15.2127 21.7278 15.2127 19.9939C15.2127 18.2668 15.8981 16.4719 16.9464 15.4153C17.8669 14.4874 18.8479 14.1894 20.2725 14.1894C21.3812 14.1894 22.7519 14.3791 23.35 14.6771C23.1148 15.2596 22.8796 16.2349 22.7385 16.9054L22.127 19.8313C22.0665 20.1023 22.08 20.6644 22.4361 21.0572L20.2389 22.8318ZM26.8508 22.527L27.946 17.3389C28.0871 16.709 28.0065 16.4245 27.5563 16.4245C27.1195 16.4245 26.7769 16.648 26.4342 17.1763L25.2919 22.527H22.5772L23.6523 17.4134C23.9009 16.1875 23.995 15.4627 23.8741 14.6635L26.2796 14.2097C26.3401 14.4739 26.4073 14.7584 26.4207 15.0902C27.0322 14.5348 27.9662 14.203 28.8599 14.203C30.8757 14.203 31.0773 15.3544 30.8287 16.5329L29.5654 22.527H26.8508ZM33.5231 22.7302C31.2789 22.7302 30.1836 21.2808 30.7615 18.5445C31.3393 15.7946 32.9923 14.203 35.3643 14.203C36.52 14.203 37.1449 14.501 37.7967 15.1647L36.2042 16.8173C35.969 16.4855 35.5658 16.2213 35.1895 16.2213C34.5646 16.2213 34.0943 16.7225 33.7516 18.3751C33.4089 20.0277 33.4425 20.705 34.222 20.705C34.8334 20.705 35.3911 20.407 35.8481 19.9803L36.6611 21.5855C35.6129 22.4457 34.5109 22.7302 33.5231 22.7302ZM44.5967 17.0815C44.5967 19.2082 43.4275 22.7302 39.6647 22.7302C37.7631 22.7302 36.6813 21.6736 36.6813 19.8042C36.6813 17.7114 37.8034 14.203 41.6133 14.203C43.2999 14.203 44.5967 15.0361 44.5967 17.0815Z" fill="white"/>
</g>
</svg>
