<svg width="121" height="24" viewBox="0 0 121 24" fill="none" xmlns="http://www.w3.org/2000/svg">
<g clip-path="url(#clip0_647_4048)">
<path d="M116.903 6.13392C116.877 6.10842 116.843 6.08657 116.799 6.06896C116.905 6.06046 116.99 6.02343 117.055 5.95665C117.119 5.89048 117.151 5.81217 117.151 5.72232C117.151 5.65858 117.132 5.59909 117.094 5.54263C117.055 5.48557 117.004 5.44671 116.94 5.42364C116.875 5.40058 116.771 5.38965 116.627 5.38965H116.205V6.61776H116.403V6.09689H116.519C116.589 6.09689 116.641 6.11024 116.677 6.13817C116.73 6.17641 116.799 6.27172 116.884 6.42471L116.994 6.61836H117.234L117.085 6.37796C117.013 6.26383 116.953 6.18249 116.903 6.13453V6.13392ZM116.642 5.9263H116.402V5.5572H116.627C116.724 5.5572 116.79 5.56449 116.826 5.57845C116.862 5.59241 116.89 5.61366 116.91 5.6428C116.93 5.67133 116.94 5.70411 116.94 5.73993C116.94 5.79578 116.919 5.84131 116.877 5.87531C116.835 5.9093 116.757 5.92691 116.642 5.92691V5.9263Z" fill="white"/>
<path d="M117.692 5.41391C117.59 5.23057 117.448 5.08973 117.266 4.99139C117.084 4.89243 116.897 4.84326 116.706 4.84326C116.515 4.84326 116.328 4.89243 116.146 4.99139C115.964 5.08973 115.822 5.23057 115.719 5.41391C115.618 5.59725 115.566 5.78847 115.566 5.98699C115.566 6.1855 115.617 6.37369 115.718 6.55521C115.818 6.73733 115.958 6.87817 116.139 6.97834C116.32 7.07911 116.509 7.1295 116.707 7.1295C116.905 7.1295 117.093 7.07911 117.274 6.97834C117.455 6.87817 117.594 6.73733 117.695 6.55521C117.795 6.37369 117.845 6.18428 117.845 5.98699C117.845 5.78969 117.794 5.59725 117.692 5.41391H117.692ZM117.53 6.4605C117.447 6.61166 117.329 6.72944 117.179 6.81321C117.027 6.89759 116.87 6.94009 116.706 6.94009C116.542 6.94009 116.384 6.89759 116.233 6.81321C116.082 6.72883 115.965 6.61106 115.881 6.4605C115.797 6.30934 115.755 6.15211 115.755 5.98699C115.755 5.82186 115.798 5.6622 115.883 5.50922C115.968 5.35624 116.087 5.23847 116.239 5.1559C116.39 5.07395 116.546 5.03267 116.706 5.03267C116.867 5.03267 117.02 5.07395 117.173 5.1559C117.325 5.23786 117.443 5.35624 117.528 5.50922C117.613 5.6622 117.655 5.82126 117.655 5.98699C117.655 6.15272 117.614 6.30934 117.53 6.4605Z" fill="white"/>
<path d="M66.1489 4.84387H64.0435C63.6388 4.84387 63.4367 4.97014 63.4367 5.22329V18.8502C63.4367 18.9134 63.4264 18.9729 63.4077 19.0281C63.2915 19.3644 62.8668 19.4118 62.594 19.2503L62.4354 19.107L48.6233 5.57721C47.9759 4.97014 47.7327 4.86876 46.3158 4.84326H44.332C43.9273 4.84326 43.7246 4.97014 43.7246 5.24818V23.62C43.7246 23.8732 43.9273 23.9994 44.332 23.9994H46.4374C46.8422 23.9994 47.0442 23.8732 47.0442 23.62V9.99366C47.0442 9.93053 47.0545 9.87104 47.0733 9.81579C47.1894 9.47947 47.6142 9.43212 47.887 9.5936L48.0455 9.73687L61.8577 23.2667C62.505 23.8738 62.7482 23.9751 64.1651 24.0006H66.1489C66.5537 24.0006 66.7564 23.8738 66.7564 23.5957V5.22329C66.7564 4.97014 66.5537 4.84387 66.1489 4.84387Z" fill="white"/>
<path d="M71.7441 4.84375H69.6387C69.2339 4.84375 69.0312 4.97063 69.0312 5.24867V23.6199C69.0312 23.873 69.2333 23.9993 69.6387 23.9993H71.7441C72.1488 23.9993 72.3509 23.873 72.3509 23.6199V5.24927C72.3509 4.97124 72.1488 4.84436 71.7441 4.84436V4.84375Z" fill="white"/>
<path d="M92.4109 5.09386C90.5088 4.91903 90.0478 4.84375 86.9314 4.84375C81.9124 4.84375 78.9981 5.31848 77.096 6.89201C75.1938 8.41576 74.627 10.6134 74.627 14.4343C74.627 18.2552 75.1938 20.4534 77.096 21.9765C78.9981 23.5003 81.8718 23.9993 86.9314 23.9993C90.2099 23.9993 90.6703 23.9246 92.4109 23.7747C92.8562 23.7249 93.0583 23.575 93.0583 23.3249V22.1508C93.0583 21.9013 92.8562 21.7762 92.4509 21.7762H86.9308C83.4902 21.7762 81.2644 21.2766 80.2522 20.3028C79.2407 19.3285 78.7143 17.3555 78.7143 14.4337C78.7143 11.5118 79.2407 9.51335 80.2522 8.53961C81.2638 7.56526 83.4902 7.06624 86.9308 7.06624H92.4509C92.8556 7.06624 93.0583 6.94119 93.0583 6.69168V5.5176C93.0583 5.26809 92.8562 5.11815 92.4109 5.09326V5.09386Z" fill="white"/>
<path d="M120.957 23.5974L114.035 7.78502C113.469 6.47799 112.862 5.67362 112.214 5.34641C111.607 5.0198 110.231 4.84375 108.167 4.84375C106.265 4.84375 105.01 5.0198 104.363 5.34641C103.755 5.67301 103.148 6.50288 102.542 7.78502L95.3779 23.5974C95.2562 23.924 95.3779 23.9999 95.8637 23.9999H99.0206C99.3442 23.9999 99.4253 23.9246 99.5469 23.5974L100.85 20.7582L104.274 13.2153L106.428 8.38845C106.913 7.18159 107.035 7.05592 108.168 7.05592C108.857 7.05592 109.261 7.1312 109.463 7.28236C109.666 7.40802 109.909 7.78502 110.192 8.38845L111.855 12.3065L113.181 15.3546C113.351 15.7456 112.96 16.142 112.49 16.06C110.058 15.6351 107.563 15.5731 105.112 15.8724C104.952 15.8919 104.816 15.9866 104.757 16.1183L103.933 17.9341C103.802 18.2224 104.087 18.5211 104.435 18.4616C106.464 18.1156 108.542 18.0555 110.588 18.2801C113.095 18.5551 115.216 20.0333 116.112 22.0955L116.791 23.5974C116.912 23.924 116.993 23.9999 117.317 23.9999H120.474C120.96 23.9999 121.081 23.9246 120.96 23.5974H120.957Z" fill="white"/>
<path d="M40.6922 4.84375H24.0547C23.6499 4.84375 23.4473 4.97063 23.4473 5.22317V23.6199C23.4473 23.873 23.6499 23.9993 24.0547 23.9993H40.6916C41.0963 23.9993 41.299 23.873 41.299 23.6199V22.1271C41.299 21.874 41.0963 21.7477 40.6916 21.7477H27.5353V15.8263H36.7548C37.1596 15.8263 37.3617 15.7 37.3617 15.4469V13.979C37.3617 13.7258 37.1596 13.5996 36.7548 13.5996H27.5353V7.09599H40.6916C41.0963 7.09599 41.299 6.96972 41.299 6.71657V5.22378C41.299 4.97063 41.0963 4.84436 40.6916 4.84436L40.6922 4.84375Z" fill="white"/>
<path d="M37.6898 1.25603L32.5237 0.0218546C32.4753 0.00728487 32.4251 0.000607072 32.3749 0C32.3247 0 32.2745 0.0066778 32.2261 0.0218546L27.06 1.25664C26.7811 1.34163 26.6238 1.63727 26.7085 1.91713L26.798 2.5151C26.8827 2.79496 27.1773 2.9528 27.4563 2.86781L32.2103 2.10047C32.2636 2.08408 32.3192 2.0774 32.3743 2.07862C32.4294 2.0774 32.485 2.08408 32.5383 2.10047L37.2923 2.86781C37.5712 2.9528 37.8659 2.79496 37.9506 2.5151L38.0401 1.91713C38.1248 1.63727 37.9675 1.34163 37.6886 1.25664L37.6898 1.25603Z" fill="white"/>
<path d="M20.9271 15.5853H17.3188V21.7768H12.3318C8.8912 21.7768 6.6654 21.2772 5.65324 20.3035C4.64168 19.3291 4.11533 17.3561 4.11533 14.4343C4.11533 11.5124 4.64168 9.51396 5.65324 8.54021C6.6648 7.56586 8.8912 7.06685 12.3318 7.06685H17.8519C18.2566 7.06685 18.4593 6.94179 18.4593 6.69229V5.51821C18.4593 5.2687 18.2572 5.11875 17.8119 5.09386C15.9098 4.91903 15.4488 4.84375 12.3324 4.84375C7.31336 4.84375 4.39907 5.31848 2.49695 6.89201C0.594229 8.41516 0.0273438 10.6128 0.0273438 14.4343C0.0273438 18.2558 0.594229 20.4534 2.49635 21.9765C4.36338 23.4718 7.17179 23.9793 12.0584 23.9981V23.9999H20.4413C20.8623 23.9999 21.2036 23.6618 21.2036 23.2447V15.8263C21.2036 15.6933 21.0795 15.5859 20.9259 15.5859L20.9271 15.5853Z" fill="white"/>
<path d="M116.903 6.13392C116.877 6.10842 116.843 6.08657 116.799 6.06896C116.905 6.06046 116.99 6.02343 117.055 5.95665C117.119 5.89048 117.151 5.81217 117.151 5.72232C117.151 5.65858 117.132 5.59909 117.094 5.54263C117.055 5.48557 117.004 5.44671 116.94 5.42364C116.875 5.40058 116.771 5.38965 116.627 5.38965H116.205V6.61776H116.403V6.09689H116.519C116.589 6.09689 116.641 6.11024 116.677 6.13817C116.73 6.17641 116.799 6.27172 116.884 6.42471L116.994 6.61836H117.234L117.085 6.37796C117.013 6.26383 116.953 6.18249 116.903 6.13453V6.13392ZM116.642 5.9263H116.402V5.5572H116.627C116.724 5.5572 116.79 5.56449 116.826 5.57845C116.862 5.59241 116.89 5.61366 116.91 5.6428C116.93 5.67133 116.94 5.70411 116.94 5.73993C116.94 5.79578 116.919 5.84131 116.877 5.87531C116.835 5.9093 116.757 5.92691 116.642 5.92691V5.9263Z" fill="white"/>
<path d="M117.692 5.41391C117.59 5.23057 117.448 5.08973 117.266 4.99139C117.084 4.89243 116.897 4.84326 116.706 4.84326C116.515 4.84326 116.328 4.89243 116.146 4.99139C115.964 5.08973 115.822 5.23057 115.719 5.41391C115.618 5.59725 115.566 5.78847 115.566 5.98699C115.566 6.1855 115.617 6.37369 115.718 6.55521C115.818 6.73733 115.958 6.87817 116.139 6.97834C116.32 7.07911 116.509 7.1295 116.707 7.1295C116.905 7.1295 117.093 7.07911 117.274 6.97834C117.455 6.87817 117.594 6.73733 117.695 6.55521C117.795 6.37369 117.845 6.18428 117.845 5.98699C117.845 5.78969 117.794 5.59725 117.692 5.41391H117.692ZM117.53 6.4605C117.447 6.61166 117.329 6.72944 117.179 6.81321C117.027 6.89759 116.87 6.94009 116.706 6.94009C116.542 6.94009 116.384 6.89759 116.233 6.81321C116.082 6.72883 115.965 6.61106 115.881 6.4605C115.797 6.30934 115.755 6.15211 115.755 5.98699C115.755 5.82186 115.798 5.6622 115.883 5.50922C115.968 5.35624 116.087 5.23847 116.239 5.1559C116.39 5.07395 116.546 5.03267 116.706 5.03267C116.867 5.03267 117.02 5.07395 117.173 5.1559C117.325 5.23786 117.443 5.35624 117.528 5.50922C117.613 5.6622 117.655 5.82126 117.655 5.98699C117.655 6.15272 117.614 6.30934 117.53 6.4605Z" fill="white"/>
</g>
<defs>
<clipPath id="clip0_647_4048">
<rect width="121" height="24" fill="white"/>
</clipPath>
</defs>
</svg>
