<svg width="83" height="32" viewBox="0 0 83 32" fill="none" xmlns="http://www.w3.org/2000/svg">
<path d="M33.4128 23.1443L35.3459 25.8932C34.069 27.1879 29.5643 31.2492 22.825 31.2492C13.319 31.2492 12.716 24.2261 3.26325 24.2261H0.496581L0 21.3708L10.6942 10.4814H2.39423L3.03269 7.12952H16.6177L16.0325 10.1977L5.65748 20.7855C13.6205 20.7855 15.5714 27.9682 23.3748 27.9682C28.1455 27.9505 32.0472 24.634 33.4128 23.1443Z" fill="white"/>
<path d="M26.3011 6.73932C20.4663 6.73932 16.4404 11.7583 16.4404 17.5577C16.4404 21.6368 19.1007 24.6162 23.428 24.6162C29.2629 24.6162 33.3242 19.6327 33.3242 13.8333C33.3242 10.038 30.9122 6.73932 26.3011 6.73932ZM23.9956 21.4594C21.9206 21.4594 20.6614 19.81 20.6614 17.4513C20.6614 14.259 22.559 9.89616 25.8223 9.89616C28.3229 9.89616 29.0855 12.0776 29.0855 13.8333C29.0855 17.2385 27.046 21.4594 23.9956 21.4594Z" fill="white"/>
<path d="M50.5446 11.5455C50.5446 8.70791 48.3987 6.73932 45.029 6.73932C39.1233 6.73932 35.3457 12.3613 35.3457 17.5222C35.3457 21.7077 37.6335 24.6162 42.3688 24.6162C44.4438 24.6162 46.7316 24.1197 48.4164 23.2506L48.0263 20.2712C46.8025 20.9096 45.2596 21.3885 43.3265 21.3885C41.7126 21.3885 40.4889 20.7855 39.8149 19.6327C39.4248 18.9588 39.2829 17.806 39.3538 17.203C45.9513 17.3449 50.5446 15.9438 50.5446 11.5455ZM44.5147 9.78975C45.8094 9.78975 46.6961 10.4637 46.6961 11.5455V11.581C46.6961 13.6205 44.0004 14.2058 39.7795 14.1526C40.2583 12.0776 41.9431 9.78975 44.5147 9.78975Z" fill="white"/>
<path d="M78.7435 9.78975C80.1446 9.78975 81.3151 10.2154 81.9358 10.5701L82.9999 7.62607C82.2196 7.16496 80.7476 6.73932 78.9563 6.73932C74.9127 6.73932 72.0397 9.06261 72.0397 12.3613C72.0397 14.3299 73.4407 15.7665 75.4093 16.8128C77.0941 17.6818 77.6617 18.3558 77.6617 19.4376C77.6617 20.5549 76.6862 21.5126 75.0369 21.5481C73.4939 21.5481 71.8091 20.8741 70.9223 20.3953L69.876 23.3393C70.7805 24.0133 72.6426 24.563 74.6467 24.5985C78.7612 24.5985 81.9181 22.488 81.9181 18.7282C81.9181 16.5468 80.2332 15.1457 78.3711 14.1348C76.9345 13.39 76.1542 12.7338 76.1542 11.7761C76.1542 10.641 77.2006 9.78975 78.7435 9.78975Z" fill="white"/>
<path d="M66.7549 2.50064C66.7549 1.02863 67.8722 0 69.2201 0C70.4792 0 71.4015 0.922222 71.4015 2.21688C71.366 3.72436 70.2487 4.68205 68.8654 4.68205H68.8121C67.5884 4.66432 66.7549 3.75983 66.7549 2.50064Z" fill="white"/>
<path d="M62.9062 24.2261H66.9853L70.2486 7.12952H66.1872L62.9062 24.2261Z" fill="white"/>
<path d="M58.5613 21.3352C57.3553 21.3352 56.7346 20.5904 57.0361 19.0651L58.7741 10.2863H62.6049L63.2433 7.12946H59.3771L60.2284 2.7489L56.0074 3.97262L55.369 7.12946H52.9747L52.354 10.2863H54.7482L52.9747 19.3134C52.354 22.5589 53.9856 24.5985 57.7277 24.5985C58.579 24.5985 59.519 24.4034 60.4057 24.1728L60.5476 20.9983C59.8737 21.1933 59.2175 21.3352 58.5613 21.3352Z" fill="white"/>
</svg>
