<svg width="26" height="26" viewBox="0 0 26 26" fill="none" xmlns="http://www.w3.org/2000/svg">
<path d="M20.3093 20.3093C18.9003 20.3093 17.7706 21.439 17.7706 22.8479C17.7706 23.5212 18.0381 24.1669 18.5142 24.643C18.9903 25.1191 19.636 25.3866 20.3093 25.3866C20.9826 25.3866 21.6283 25.1191 22.1044 24.643C22.5805 24.1669 22.8479 23.5212 22.8479 22.8479C22.8479 22.1746 22.5805 21.5289 22.1044 21.0528C21.6283 20.5767 20.9826 20.3093 20.3093 20.3093ZM0 0V2.53866H2.53866L7.10825 12.1729L5.38196 15.2827C5.19156 15.6381 5.07732 16.057 5.07732 16.5013C5.07732 17.1746 5.34478 17.8203 5.82087 18.2964C6.29697 18.7725 6.94268 19.0399 7.61598 19.0399H22.8479V16.5013H8.1491C8.06493 16.5013 7.98422 16.4679 7.92471 16.4083C7.8652 16.3488 7.83176 16.2681 7.83176 16.184C7.83176 16.1205 7.84446 16.0697 7.86984 16.0316L9.01224 13.9626H18.4687C19.4207 13.9626 20.2585 13.4295 20.6901 12.6552L25.2343 4.44265C25.3231 4.23956 25.3866 4.02377 25.3866 3.80799C25.3866 3.47134 25.2529 3.14848 25.0148 2.91044C24.7768 2.67239 24.4539 2.53866 24.1173 2.53866H5.34388L4.15071 0M7.61598 20.3093C6.20702 20.3093 5.07732 21.439 5.07732 22.8479C5.07732 23.5212 5.34478 24.1669 5.82087 24.643C6.29697 25.1191 6.94268 25.3866 7.61598 25.3866C8.28927 25.3866 8.93499 25.1191 9.41108 24.643C9.88717 24.1669 10.1546 23.5212 10.1546 22.8479C10.1546 22.1746 9.88717 21.5289 9.41108 21.0528C8.93499 20.5767 8.28927 20.3093 7.61598 20.3093Z" fill="#292929"/>
</svg>
