<svg width="21" height="21" viewBox="0 0 21 21" fill="none" xmlns="http://www.w3.org/2000/svg">
<path d="M13.5824 9.40253V9.41297M3.31691 6.66354C2.85874 6.3114 2.50685 5.83944 2.30014 5.29982C2.09343 4.7602 2.03995 4.17393 2.1456 3.60581C2.25125 3.03769 2.51192 2.50985 2.89881 2.08061C3.28569 1.65138 3.78372 1.33748 4.33785 1.17359C4.89199 1.00971 5.48064 1.00223 6.03876 1.15198C6.59688 1.30173 7.10272 1.60288 7.50039 2.02214C7.89806 2.44141 8.17206 2.96246 8.29211 3.52771C8.41216 4.09296 8.37359 4.6804 8.18065 5.2251" stroke="#12A14B" stroke-width="2.08924" stroke-linecap="round" stroke-linejoin="round"/>
<path d="M14.6268 2.08984V6.06253C15.9195 6.81067 16.9038 7.99454 17.4034 9.40217H18.8042C19.0813 9.40217 19.347 9.51223 19.5429 9.70813C19.7388 9.90404 19.8488 10.1697 19.8488 10.4468V12.536C19.8488 12.8131 19.7388 13.0788 19.5429 13.2747C19.347 13.4706 19.0813 13.5806 18.8042 13.5806H17.4023C17.0513 14.573 16.4549 15.461 15.6703 16.164V18.2814C15.6703 18.697 15.5053 19.0956 15.2114 19.3894C14.9175 19.6833 14.519 19.8484 14.1034 19.8484C13.6878 19.8484 13.2893 19.6833 12.9954 19.3894C12.7016 19.0956 12.5365 18.697 12.5365 18.2814V17.6724C12.1913 17.7304 11.8419 17.7594 11.4919 17.7591H7.3134C6.96338 17.7594 6.61396 17.7304 6.26878 17.6724V18.2814C6.26878 18.697 6.10369 19.0956 5.80984 19.3894C5.51598 19.6833 5.11743 19.8484 4.70185 19.8484C4.28628 19.8484 3.88772 19.6833 3.59387 19.3894C3.30001 19.0956 3.13493 18.697 3.13493 18.2814V16.164C2.18846 15.3178 1.52128 14.2042 1.22169 12.9704C0.922099 11.7367 1.00423 10.4411 1.45721 9.25511C1.91018 8.0691 2.71265 7.04862 3.75839 6.32873C4.80413 5.60884 6.04383 5.22349 7.3134 5.2237H9.92495L14.6268 2.08984Z" stroke="#12A14B" stroke-width="2.08924" stroke-linecap="round" stroke-linejoin="round"/>
</svg>
